<?xml version="1.0" standalone="no"?>
<!DOCTYPE svg PUBLIC "-//W3C//DTD SVG 1.1//EN" "http://www.w3.org/Graphics/SVG/1.1/DTD/svg11.dtd" >
<svg xmlns="http://www.w3.org/2000/svg">
<metadata>
<json>
<![CDATA[
{
	"fontFamily": "icomoon",
	"majorVersion": 1,
	"minorVersion": 0,
	"version": "Version 1.0",
	"fontId": "icomoon",
	"psName": "icomoon",
	"subFamily": "Regular",
	"fullName": "icomoon",
	"description": "Font generated by IcoMoon."
}
]]>
</json>
</metadata>
<defs>
<font id="icomoon" horiz-adv-x="1024">
<font-face units-per-em="1024" ascent="960" descent="-64" />
<missing-glyph horiz-adv-x="1024" />
<glyph unicode="&#x20;" horiz-adv-x="512" d="" />
<glyph unicode="&#xe900;" glyph-name="bank-details2" data-tags="bank details" d="M630.5 682.1l-267.7-456.5 16.1-11.7 269.1 456.5zM607.1 439.2c-45.3 0-81.9-45.3-81.9-102.4s36.6-102.4 81.9-102.4c43.9 0 81.9 45.3 81.9 102.4s-36.6 102.4-81.9 102.4zM607.1 253.4c-33.6 0-61.4 36.6-61.4 81.9s27.8 81.9 61.4 81.9 61.4-36.6 61.4-81.9-27.8-81.9-61.4-81.9zM485.7 560.6c0 57.1-36.6 102.4-81.9 102.4s-81.9-45.3-81.9-102.4c0-57.1 36.6-102.4 81.9-102.4 43.8 0 81.9 45.4 81.9 102.4zM342.3 559.2c0 45.3 27.8 81.9 61.4 81.9s61.4-36.6 61.4-81.9-27.8-81.9-61.4-81.9-61.4 36.5-61.4 81.9zM512 960c-282.3 0-512-229.7-512-512s229.7-512 512-512 512 229.7 512 512-229.7 512-512 512zM512-34.7c-266.2 0-482.7 216.5-482.7 482.7s216.5 482.7 482.7 482.7v0c266.2 0 482.7-216.5 482.7-482.7s-216.5-482.7-482.7-482.7z" />
<glyph unicode="&#xe901;" glyph-name="basic-details2" data-tags="basic details" d="M512 960c-282.3 0-512-229.7-512-512s229.7-512 512-512 512 229.7 512 512-229.7 512-512 512zM512-34.7c-266.2 0-482.7 216.5-482.7 482.7s216.5 482.7 482.7 482.7v0c266.2 0 482.7-216.5 482.7-482.7s-216.5-482.7-482.7-482.7zM760.7 528.5h-204.8c-8.8 0-14.6-7.3-14.6-14.6 0-8.8 5.9-14.6 14.6-14.6h204.8c7.3 0 14.6 5.9 14.6 14.6s-5.8 14.6-14.6 14.6zM760.7 455.3h-204.8c-8.8 0-14.6-5.9-14.6-14.6s5.9-14.6 14.6-14.6h204.8c7.3 0 14.6 5.9 14.6 14.6s-5.8 14.6-14.6 14.6zM829.4 601.6h-269.1c-10.2 0-19-5.9-19-14.6 0-8.8 8.8-14.6 19-14.6h269.2c10.2 0 19 5.9 19 14.6s-8.8 14.6-19.1 14.6zM190.2 294.4h307.2v307.2h-307.2v-307.2zM219.4 572.3h248.7v-248.7h-248.7v248.7z" />
<glyph unicode="&#xe902;" glyph-name="KYC" data-tags="KYC" d="M512 960c-282.3 0-512-229.7-512-512s229.7-512 512-512 512 229.7 512 512-229.7 512-512 512zM512-34.7c-266.2 0-482.7 216.5-482.7 482.7s216.5 482.7 482.7 482.7v0c266.2 0 482.7-216.5 482.7-482.7s-216.5-482.7-482.7-482.7zM428.6 540.2c-4.4 2.9-11.7 1.5-14.6-2.9l-102.4-136-35.1 46.7c-2.9 5.9-10.2 5.9-14.6 2.9-5.9-4.4-5.9-10.2-2.9-14.6l51.2-68.8 121.4 158c2.9 4.4 1.4 11.7-3 14.7zM753.4 528.5h-204.8c-8.8 0-14.6-5.9-14.6-14.6 0-8.8 5.9-14.6 14.6-14.6h204.8c7.3 0 14.6 5.9 14.6 14.6s-5.9 14.6-14.6 14.6zM753.4 455.3h-204.8c-8.8 0-14.6-5.9-14.6-14.6s5.9-14.6 14.6-14.6h204.8c7.3 0 14.6 5.9 14.6 14.6s-5.9 14.6-14.6 14.6zM822.1 601.6h-269.1c-10.2 0-19-5.9-19-14.6 0-8.8 8.8-14.6 19-14.6h269.2c10.2 0 19 5.9 19 14.6-0.1 8.7-8.8 14.6-19.1 14.6zM182.9 294.4h307.2v307.2h-307.2v-307.2zM212.1 572.3h248.7v-248.7h-248.7v248.7z" />
<glyph unicode="&#xe903;" glyph-name="Profile" data-tags="Profile" d="M512.2 462.8c68.8 0 125.8 54.1 125.8 124.3s-57 125.8-125.8 125.8-125.8-54.1-125.8-124.3 57.1-125.8 125.8-125.8zM512.2 686.6v0c54.1 0 98-43.9 98-98s-43.9-98-98-98-98 43.9-98 98 43.9 98 98 98zM513 445.1c-201.9 0-244.3-168.2-244.3-169.7l-4.4-19h495.9l-4.4 19c0 1.4-39.5 169.7-242.8 169.7zM305.2 285.6c16.1 39.5 67.3 127.3 207.7 127.3s190.2-87.8 206.3-127.3h-414zM512.2 960c-282.3 0-512-229.7-512-512s229.7-512 512-512 512 229.7 512 512-229.6 512-512 512zM512.2-34.7c-266.2 0-482.7 216.5-482.7 482.7s216.5 482.7 482.7 482.7v0c266.3 0 482.8-216.5 482.8-482.7s-216.5-482.7-482.8-482.7z" />
<glyph unicode="&#xe904;" glyph-name="selection" data-tags="selection" d="M190.2 228.6h424.2v424.2h-424.2v-424.2zM204.8 638.2h395v-395h-395v395zM629 448h204.8v204.8h-204.8v-204.8zM640.7 641.1h181.4v-181.4h-181.4v181.4zM629 228.6h204.8v204.8h-204.8v-204.8zM640.7 421.7h181.4v-181.4h-181.4v181.4zM536.9 575.3c-5.9 2.9-11.7 1.5-16.1-2.9l-172.6-231.2-61.4 83.4c-4.4 5.9-10.2 5.9-16.1 2.9-5.9-4.4-7.3-11.7-2.9-16.1l79-108.3 193.1 256c2.8 5.9 2.8 13.2-3 16.2zM512 960c-282.3 0-512-229.7-512-512s229.7-512 512-512 512 229.7 512 512-229.7 512-512 512zM512-34.7c-266.2 0-482.7 216.5-482.7 482.7s216.5 482.7 482.7 482.7v0c266.2 0 482.7-216.5 482.7-482.7s-216.5-482.7-482.7-482.7z" />
<glyph unicode="&#xe905;" d="M804.571-20.114c-105.326 0-190.171 84.846-190.171 190.171s84.846 190.171 190.171 190.171 190.171-84.846 190.171-190.171-84.846-190.171-190.171-190.171zM804.571 345.6c-96.549 0-175.543-78.994-175.543-175.543s78.994-175.543 175.543-175.543 175.543 78.994 175.543 175.543-77.531 175.543-175.543 175.543z" />
<glyph unicode="&#xe906;" d="M848.457 38.4c-11.703 0-8.777 0-20.48 0-2.926 5.851-81.92 96.549-81.92 98.011 0 5.851 0 21.943 0 19.017h32.183c42.423 4.389 42.423 43.886 42.423 43.886h-73.143l14.629 14.629h58.514c0 0 2.926 7.314-1.463 14.629-5.851 10.24-23.406 14.629-23.406 14.629h-64.366c0 0 5.851 4.389 10.24 14.629h150.674c-10.24-13.166-14.629-14.629-14.629-14.629h-51.2c0 0 5.851-4.389 8.777-16.091 1.463-5.851 1.463-13.166 1.463-13.166h40.96l-14.629-14.629c0 0-20.48 0-27.794 0-1.463 0 7.314-58.514-70.217-58.514 1.463 0 80.457-99.474 83.383-102.4z" />
<glyph unicode="&#xe907;" d="M186.514 630.857h254.171v-254.171h-254.171v254.171z" />
<glyph unicode="&#xe908;" d="M449.829 365.714h-272.457v274.286h272.457c0 0 0-274.286 0-274.286zM195.657 384h235.886v237.714h-235.886v-237.714z" />
<glyph unicode="&#xe909;" d="M312.686 466.286c-31.086 0-54.857 25.6-54.857 54.857s25.6 54.857 54.857 54.857 54.857-25.6 54.857-54.857-23.771-54.857-54.857-54.857zM312.686 559.543c-20.114 0-36.571-16.457-36.571-36.571s16.457-36.571 36.571-36.571 36.571 16.457 36.571 36.571-16.457 36.571-36.571 36.571z" />
<glyph unicode="&#xe90a;" d="M396.8 365.714h-164.571v51.2c0 34.743 29.257 64 64 64h36.571c34.743 0 64-29.257 64-64v-51.2zM250.514 384h128v32.914c0 25.6-20.114 45.714-45.714 45.714h-36.571c-25.6 0-45.714-20.114-45.714-45.714 0 0 0-32.914 0-32.914z" />
<glyph unicode="&#xe90b;" d="M733.257 550.4h-223.086c-5.486 0-9.143 3.657-9.143 9.143s3.657 9.143 9.143 9.143h221.257c5.486 0 9.143-3.657 9.143-9.143s-1.829-9.143-7.314-9.143z" />
<glyph unicode="&#xe90c;" d="M660.114 458.971h-148.114c-5.486 0-9.143 3.657-9.143 9.143s3.657 9.143 9.143 9.143h148.114c5.486 0 9.143-3.657 9.143-9.143s-3.657-9.143-9.143-9.143z" />
<glyph unicode="&#xe90d;" d="M407.771 330.971c-1.829 0-5.486 0-7.314 1.829l-29.257 12.8-29.257-12.8c-9.143-3.657-20.114 0-23.771 9.143l-12.8 29.257-31.086 7.314c-5.486 1.829-9.143 3.657-10.971 9.143-1.829 3.657-3.657 9.143-1.829 14.629l9.143 31.086-18.286 25.6c-3.657 3.657-3.657 9.143-3.657 12.8s3.657 9.143 7.314 10.971l25.6 18.286 3.657 31.086c0 5.486 1.829 9.143 7.314 12.8 3.657 3.657 9.143 5.486 12.8 3.657l31.086-3.657 21.943 21.943c7.314 7.314 18.286 7.314 25.6 0l21.943-21.943 31.086 3.657c5.486 0 9.143-1.829 12.8-3.657 3.657-3.657 5.486-7.314 7.314-12.8l3.657-31.086 25.6-18.286c9.143-5.486 10.971-16.457 3.657-25.6l-18.286-25.6 9.143-31.086c1.829-5.486 0-9.143-1.829-14.629-1.829-3.657-5.486-7.314-10.971-9.143l-31.086-9.143-12.8-29.257c-1.829-3.657-5.486-7.314-10.971-9.143-1.829 1.829-3.657 1.829-5.486 1.829zM301.714 532.114l-3.657-40.229-32.914-23.771 21.943-34.743v-1.829l-9.143-34.743 38.4-10.971 16.457-36.571 38.4 16.457h3.657l32.914-14.629 16.457 36.571 38.4 10.971-9.143 36.571 1.829 5.486 20.114 29.257-32.914 23.771-3.657 40.229-40.229-3.657-27.429 27.429-29.257-29.257-40.229 3.657zM477.257 468.114v0z" />
<glyph unicode="&#xe90e;" d="M700.343 592.457c-1.829 0-5.486 1.829-7.314 3.657-3.657 3.657-3.657 9.143 0 12.8l40.229 34.743c3.657 3.657 9.143 3.657 12.8 0s3.657-9.143 0-12.8l-40.229-34.743c-1.829-1.829-3.657-3.657-5.486-3.657z" />
<glyph unicode="&#xe90f;" d="M1024 448c0-282.77-229.23-512-512-512s-512 229.23-512 512c0 282.77 229.23 512 512 512s512-229.23 512-512z" />
<glyph unicode="&#xe910;" d="M1024 448c0-282.77-229.23-512-512-512s-512 229.23-512 512c0 282.77 229.23 512 512 512s512-229.23 512-512z" />
<glyph unicode="&#xe911;" d="M1024 448c0-282.77-229.23-512-512-512s-512 229.23-512 512c0 282.77 229.23 512 512 512s512-229.23 512-512z" />
<glyph unicode="&#xe912;" d="M683.886 135.314h-270.629c-20.114 0-36.571 16.457-36.571 36.571v54.857h341.943v-54.857c1.829-20.114-14.629-36.571-34.743-36.571z" />
<glyph unicode="&#xe913;" d="M340.114 632.686h341.943v-371.2h-341.943v371.2z" />
<glyph unicode="&#xe914;" d="M693.029 254.171h-362.057v387.657h360.229v-387.657zM349.257 272.457h323.657v351.086h-323.657v-351.086z" />
<glyph unicode="&#xe915;" d="M647.314 162.743h-270.629c-25.6 0-45.714 20.114-45.714 45.714v64h360.229v-64c1.829-25.6-20.114-45.714-43.886-45.714zM349.257 254.171v-45.714c0-14.629 12.8-27.429 27.429-27.429h268.8c14.629 0 27.429 12.8 27.429 27.429v45.714h-323.657z" />
<glyph unicode="&#xe916;" d="M1024 448c0-282.77-229.23-512-512-512s-512 229.23-512 512c0 282.77 229.23 512 512 512s512-229.23 512-512z" />
<glyph unicode="&#xe917;" d="M574.171 691.2c0-28.277-22.923-51.2-51.2-51.2s-51.2 22.923-51.2 51.2c0 28.277 22.923 51.2 51.2 51.2s51.2-22.923 51.2-51.2z" />
<glyph unicode="&#xe918;" d="M546.743 62.171c-38.4 0-69.486 31.086-69.486 69.486v36.571h138.971v-36.571c0-38.4-31.086-69.486-69.486-69.486z" />
<glyph unicode="&#xe919;" d="M510.171 89.6c-43.886 0-78.629 34.743-78.629 78.629v45.714h157.257v-45.714c0-43.886-34.743-78.629-78.629-78.629zM449.829 195.657v-27.429c0-32.914 27.429-60.343 60.343-60.343s60.343 27.429 60.343 60.343v27.429h-120.686z" />
<glyph unicode="&#xe91a;" d="M753.371 281.6v0c-29.257 0-53.029 23.771-53.029 53.029v135.314c0 104.229-84.114 188.343-188.343 188.343v0c-104.229 0-188.343-84.114-188.343-188.343v-135.314c0-29.257-23.771-53.029-53.029-53.029v0c-20.114 0-36.571-16.457-36.571-36.571v-7.314c0-20.114 16.457-36.571 36.571-36.571h484.571c20.114 0 36.571 16.457 36.571 36.571v7.314c-1.829 20.114-18.286 36.571-38.4 36.571z" />
<glyph unicode="&#xe91b;" d="M755.2 192h-484.571c-25.6 0-45.714 20.114-45.714 45.714v7.314c0 25.6 20.114 45.714 45.714 45.714 23.771 0 43.886 20.114 43.886 43.886v135.314c0 109.714 87.771 197.486 197.486 197.486s197.486-87.771 197.486-197.486v-135.314c0-23.771 20.114-43.886 43.886-43.886s45.714-20.114 47.543-45.714v-7.314c0-25.6-20.114-45.714-45.714-45.714zM512 649.143c-98.743 0-179.2-80.457-179.2-179.2v-135.314c0-34.743-27.429-62.171-62.171-62.171-14.629 0-27.429-12.8-27.429-27.429v-7.314c0-14.629 12.8-27.429 27.429-27.429h484.571c14.629 0 27.429 12.8 27.429 27.429v7.314c-1.829 14.629-14.629 27.429-29.257 27.429-34.743 0-62.171 27.429-62.171 62.171v135.314c0 98.743-80.457 179.2-179.2 179.2z" />
<glyph unicode="&#xe91c;" d="M248.686 945.371h746.057v-892.343h-746.057v892.343z" />
<glyph unicode="&#xe91d;" d="M994.743 45.714h-746.057c-4.389 0-7.314 2.926-7.314 7.314v892.343c0 4.389 2.926 7.314 7.314 7.314h746.057c4.389 0 7.314-2.926 7.314-7.314v-892.343c0-4.389-2.926-7.314-7.314-7.314zM256 60.343h731.429v877.714h-731.429v-877.714z" />
<glyph unicode="&#xe91e;" d="M204.8 901.486h746.057v-892.343h-746.057v892.343z" />
<glyph unicode="&#xe91f;" d="M950.857 1.829h-746.057c-4.389 0-7.314 2.926-7.314 7.314v892.343c0 4.389 2.926 7.314 7.314 7.314h746.057c4.389 0 7.314-2.926 7.314-7.314v-892.343c0-4.389-2.926-7.314-7.314-7.314zM212.114 16.457h731.429v877.714h-731.429v-877.714z" />
<glyph unicode="&#xe920;" d="M555.886 213.943c0-145.424-117.89-263.314-263.314-263.314s-263.314 117.89-263.314 263.314c0 145.424 117.89 263.314 263.314 263.314s263.314-117.89 263.314-263.314z" />
<glyph unicode="&#xe921;" d="M292.571-56.686c-149.211 0-270.629 121.417-270.629 270.629s121.417 270.629 270.629 270.629 270.629-121.417 270.629-270.629-121.417-270.629-270.629-270.629zM292.571 469.943c-140.434 0-256-115.566-256-256s115.566-256 256-256 256 115.566 256 256-115.566 256-256 256z" />
<glyph unicode="&#xe922;" d="M234.057 60.343c-1.463 0-4.389 1.463-5.851 2.926l-117.029 131.657c-2.926 2.926-2.926 7.314 0 10.24s7.314 2.926 10.24 0l111.177-125.806 213.577 270.629c2.926 2.926 7.314 4.389 10.24 1.463s4.389-7.314 1.463-10.24l-219.429-277.943c0-1.463-1.463-2.926-4.389-2.926 0 0 0 0 0 0z" />
<glyph unicode="&#xe923;" d="M643.657 499.2c-16.091 0-32.183 0-48.274 0-5.851 7.314-13.166 16.091-19.017 23.406-30.72 38.034-59.977 76.069-90.697 114.103 0 0-1.463 1.463-1.463 2.926 0 8.777 0 16.091 0 24.869v1.463c5.851 0 11.703 0 17.554 0 11.703 0 24.869 0 36.571 2.926 10.24 2.926 20.48 5.851 29.257 14.629s14.629 19.017 17.554 32.183c0 1.463 0 2.926 1.463 4.389-36.571 0-73.143 0-111.177 0v1.463c5.851 8.777 11.703 19.017 16.091 27.794 0 0 1.463 1.463 2.926 1.463 27.794 0 57.051-1.463 84.846-1.463h1.463c-2.926 4.389-4.389 8.777-8.777 11.703-7.314 7.314-16.091 10.24-26.331 13.166-13.166 2.926-27.794 4.389-40.96 4.389-10.24 0-21.943 0-32.183 0v0l1.463 1.463c5.851 8.777 11.703 17.554 17.554 26.331 0 1.463 1.463 1.463 2.926 1.463 61.44 0 122.88 0 184.32 0h1.463c0-1.463-1.463-1.463-1.463-1.463-5.851-8.777-11.703-17.554-16.091-26.331-1.463-1.463-1.463-1.463-2.926-1.463-16.091 0-32.183 0-46.811 0v0c2.926-4.389 7.314-10.24 10.24-14.629s5.851-10.24 5.851-16.091c17.554 0 35.109 0 54.126 0 0-1.463-1.463-1.463-1.463-1.463-5.851-8.777-11.703-17.554-16.091-26.331-1.463-2.926-1.463-2.926-2.926-2.926-10.24 0-21.943 0-32.183 0-1.463 0-1.463 0-2.926-1.463 0-2.926-1.463-7.314-2.926-10.24-5.851-17.554-17.554-30.72-32.183-40.96-16.091-10.24-32.183-16.091-51.2-19.017-2.926 0-5.851-1.463-8.777-1.463l1.463-1.463c32.183-42.423 65.829-83.383 98.011-125.806 2.926-7.314 7.314-13.166 11.703-17.554z" />
<glyph unicode="&#xe924;" d="M914.286 347.063h-321.829c-4.389 0-7.314 2.926-7.314 7.314s2.926 7.314 7.314 7.314h321.829c4.389 0 7.314-2.926 7.314-7.314s-2.926-7.314-7.314-7.314z" />
<glyph unicode="&#xe925;" d="M914.286 290.011h-321.829c-4.389 0-7.314 2.926-7.314 7.314s2.926 7.314 7.314 7.314h321.829c4.389 0 7.314-2.926 7.314-7.314s-2.926-7.314-7.314-7.314z" />
<glyph unicode="&#xe926;" d="M914.286 227.109h-321.829c-4.389 0-7.314 2.926-7.314 7.314s2.926 7.314 7.314 7.314h321.829c4.389 0 7.314-2.926 7.314-7.314s-2.926-7.314-7.314-7.314z" />
<glyph unicode="&#xe927;" d="M914.286 170.057h-321.829c-4.389 0-7.314 2.926-7.314 7.314s2.926 7.314 7.314 7.314h321.829c4.389 0 7.314-2.926 7.314-7.314s-2.926-7.314-7.314-7.314z" />
<glyph unicode="&#xe928;" d="M914.286 113.006h-321.829c-4.389 0-7.314 2.926-7.314 7.314s2.926 7.314 7.314 7.314h321.829c4.389 0 7.314-2.926 7.314-7.314s-2.926-7.314-7.314-7.314z" />
<glyph unicode="&#xe929;" glyph-name="transfer" data-tags="transfer" d="M529.5 491.9c6.8 5.9 3 14.6 1.5 16.1l-124.3 144.8-125.8-144.8c-2.6-3.7-4-10.6 1.7-15.9 6.2-4.4 14.4-1.7 18.8 2.7l90.3 104.1v-329.8c0-7.8 8.7-11.7 14.5-11.7 7.3 0 14.7 5.6 14.7 11.7v330.5l89.7-104.8c4.3-5.8 13.4-7.7 18.9-2.9zM512 960c-282.3 0-512-229.7-512-512s229.7-512 512-512 512 229.7 512 512-229.7 512-512 512zM512-34.7c-266.2 0-482.7 216.5-482.7 482.7s216.5 482.7 482.7 482.7v0c266.2 0 482.7-216.5 482.7-482.7s-216.5-482.7-482.7-482.7zM762.7 418.6c-5.8 4.8-13.7 1.6-18.1-2.8l-90.3-104.1v325.9c-0.2 8.2-8.7 12.8-14.5 12.8-7.3 0-14.4-4-14.7-12.8v-326.6l-89.7 104.8c-4.8 5.6-11.8 7.9-18.3 2.3-5.7-4.9-4.6-11.9-2.1-15.4l124.3-144.8 125.8 144.8c4 5.1 3.3 11.2-2.4 15.9z" />
<glyph unicode="&#xe92a;" d="M541.013 891.733c210.603 0 381.611-170.667 381.611-381.611s-170.667-381.611-381.611-381.611-381.611 170.667-381.611 381.611c0 210.944 171.008 381.611 381.611 381.611z" />
<glyph unicode="&#xe92b;" d="M435.2 441.515c0 0 0-0.341 0 0v0.341h-88.747l-7.509-46.080c15.701-1.365 29.355 1.024 41.643 5.12-12.288-4.096-26.283-6.485-41.643-5.461l-1.707-9.216c79.872-40.619 109.568 10.581 109.568 10.581l-11.605 44.715z" />
<glyph unicode="&#xe92c;" d="M299.691 377.003c0 0 28.331 32.427 44.715 22.187 0 0 55.637-41.643 98.987-0.683 0 0 21.163 4.779 33.109-20.139 11.605-24.235-36.864-299.691-51.541-308.907-14.336-8.875-66.901 0-66.901 0s-85.675 208.555-58.368 307.541z" />
<glyph unicode="&#xe92d;" d="M414.037 385.877h-46.421c0 0 6.827-27.989 22.528-40.96v-1.024c0.341 0.341 0.341 0.341 0.683 0.683 0.341-0.341 0.341-0.341 0.683-0.341v1.024c15.701 12.629 22.528 40.619 22.528 40.619z" />
<glyph unicode="&#xe92e;" d="M401.067 355.84l-10.24-10.923-9.557 10.923c0 0-25.6-167.595-19.797-248.149 4.779-71.339 21.845-86.357 29.013-90.112l0.683-0.341 0.683 0.341c7.509 3.755 25.6 18.773 30.379 90.112 5.12 80.896-21.163 248.149-21.163 248.149z" />
<glyph unicode="&#xe92f;" d="M325.291 397.483l17.408 20.139c0 0 16.725-27.989 49.152-31.403 0 0-27.648-35.157-33.451-53.248l-33.109 64.512z" />
<glyph unicode="&#xe930;" d="M504.686 650.971c-32.914 0-60.343 27.429-60.343 60.343s27.429 60.343 60.343 60.343 60.343-27.429 60.343-60.343-27.429-60.343-60.343-60.343zM504.686 751.543c-23.771 0-42.057-18.286-42.057-42.057s18.286-42.057 42.057-42.057c23.771 0 42.057 18.286 42.057 42.057s-18.286 42.057-42.057 42.057z" />
<glyph unicode="&#xe931;" d="M245.029 491.886c-5.486 0-9.143 3.657-9.143 7.314-10.971 107.886 67.657 164.571 71.314 168.229s9.143 1.829 12.8-1.829c3.657-3.657 1.829-9.143-1.829-12.8-3.657-1.829-74.971-54.857-64-149.943 1.829-7.314-1.829-10.971-9.143-10.971 1.829 0 0 0 0 0z" />
<glyph unicode="&#xe932;" d="M164.571 464.457c-5.486 0-9.143 3.657-9.143 7.314-18.286 179.2 117.029 277.943 118.857 277.943 3.657 3.657 9.143 1.829 12.8-1.829s1.829-9.143-1.829-12.8c-1.829-1.829-129.829-93.257-111.543-261.486 0-5.486-3.657-9.143-9.143-9.143 0 0 0 0 0 0z" />
<glyph unicode="&#xe933;" d="M778.971 491.886c0 0-1.829 0 0 0-5.486 0-9.143 5.486-9.143 10.971 10.971 96.914-64 149.943-64 149.943-3.657 3.657-5.486 9.143-1.829 12.8s9.143 5.486 12.8 1.829c3.657-1.829 82.286-60.343 71.314-168.229-1.829-5.486-5.486-7.314-9.143-7.314z" />
<glyph unicode="&#xe934;" d="M859.429 464.457c0 0 0 0 0 0-5.486 0-9.143 5.486-9.143 10.971 18.286 168.229-109.714 261.486-111.543 261.486-3.657 3.657-5.486 9.143-1.829 12.8s9.143 5.486 12.8 1.829c1.829-1.829 137.143-100.571 118.857-277.943 0-7.314-3.657-9.143-9.143-9.143z" />
<glyph unicode="&#xe935;" glyph-name="Religare-logo" data-tags="Religare logo" horiz-adv-x="6511" d="M492.272 430.15l8.455-3.758 9.394-3.758 10.334-2.818 10.334-1.879 11.273-1.879 12.213-1.879 11.273-0.939 24.426-1.879 13.152 0.939h26.305l27.244 0.939 56.367 3.758h56.367l28.183-1.879 26.305-3.758 13.152-2.818 12.213-2.818 24.426-7.516 12.213-4.697 11.273-5.637 13.152-8.455 11.273-8.455 11.273-9.394 10.334-9.394 16.91-20.668 6.576-10.334 5.637-11.273 4.697-11.273 3.758-11.273 2.818-11.273 1.879-11.273 0.939-11.273v-11.273l-1.879-22.547-1.879-10.334-2.818-10.334-3.758-10.334-9.394-18.789-5.637-8.455-6.576-7.516-7.516-7.516-7.516-6.576-18.789-9.394-9.394-3.758-10.334-2.818-11.273-1.879-11.273-0.939h-27.244l-11.273-2.818-5.637-1.879-2.818-1.879h-3.758l-2.818-0.939-2.818-1.879-1.879-1.879-2.818-1.879-1.879-1.879-1.879-2.818-1.879-1.879-1.879-2.818-1.879-1.879-1.879-2.818-0.939-2.818-0.939-3.758-1.879-5.637-2.818-11.273v-28.183l-0.939-11.273-1.879-11.273-2.818-10.334-3.758-9.394-4.697-9.394-5.637-7.516-6.576-7.516-7.516-7.516-7.516-6.576-8.455-5.637-18.789-9.394-9.394-3.758-10.334-2.818-10.334-1.879-11.273-1.879h-22.547l-11.273 0.939-22.547 5.637-11.273 3.758-10.334 4.697-10.334 5.637-11.273 6.576-10.334 7.516-10.334 9.394-9.394 9.394-9.394 10.334-8.455 12.213-7.516 13.152-5.637 11.273-5.637 12.213-4.697 12.213-3.758 12.213-7.516 52.609-0.939 14.092v69.519l3.758 56.367 0.939 27.244v52.609l-0.939 12.213-0.939 11.273-1.879 12.213-1.879 11.273-5.637 20.668-3.758 9.394-3.758 7.516zM492.272 430.15l-3.758-8.455-3.758-9.394-5.637-20.668-1.879-10.334-1.879-11.273-0.939-11.273v-64.822l0.939-27.244 3.758-56.367v-14.092l0.939-14.092v-14.092l-0.939-14.092v-13.152l-0.939-14.092-3.758-26.305-2.818-14.092-2.818-13.152-7.516-24.426-5.637-12.213-5.637-11.273-7.516-13.152-8.455-12.213-9.394-10.334-10.334-9.394-9.394-9.394-20.668-13.152-11.273-5.637-11.273-4.697-11.273-3.758-22.547-5.637-11.273-0.939h-22.547l-11.273 1.879-10.334 1.879-10.334 2.818-9.394 3.758-9.394 4.697-8.455 4.697-8.455 5.637-7.516 6.576-13.152 15.031-5.637 8.455-4.697 9.394-3.758 9.394-2.818 10.334-1.879 11.273v38.517l-2.818 11.273-1.879 5.637-0.939 3.758-2.818 1.879-5.637 8.455-3.758 3.758-2.818 1.879-1.879 1.879-2.818 1.879-1.879 1.879-2.818 0.939-5.637 3.758-5.637 1.879-11.273 2.818h-29.123l-11.273 0.939h-10.334l-10.334 2.818-9.394 3.758-9.394 4.697-7.516 5.637-7.516 6.576-7.516 7.516-6.576 7.516-5.637 8.455-9.394 18.789-3.758 10.334-2.818 10.334-1.879 10.334-1.879 22.547 1.879 22.547 1.879 11.273 2.818 11.273 3.758 11.273 4.697 11.273 5.637 11.273 15.031 20.668 8.455 10.334 20.668 18.789 11.273 8.455 13.152 8.455 11.273 5.637 11.273 4.697 24.426 7.516 12.213 2.818 13.152 2.818 13.152 1.879 14.092 1.879 14.092 0.939 13.152 0.939h56.367l14.092-0.939 14.092-1.879 27.244-1.879 27.244-0.939h26.305l13.152-0.939 24.426 1.879 11.273 0.939 22.547 3.758 10.334 1.879 10.334 2.818 18.789 7.516zM492.272 430.15l8.455 3.758 9.394 3.758 10.334 2.818 10.334 1.879 11.273 1.879 12.213 0.939 11.273 0.939 12.213 0.939h51.67l55.428-1.879 42.275-2.818h42.275l28.183 1.879 13.152 0.939 13.152 1.879 13.152 2.818 12.213 2.818 24.426 7.516 12.213 4.697 11.273 6.576 13.152 7.516 11.273 8.455 11.273 9.394 10.334 9.394 8.455 9.394 8.455 10.334 6.576 10.334 5.637 11.273 4.697 11.273 3.758 11.273 2.818 11.273 1.879 11.273 0.939 11.273v11.273l-1.879 22.547-1.879 10.334-2.818 10.334-3.758 10.334-9.394 18.789-5.637 8.455-6.576 7.516-15.031 13.152-9.394 8.455-9.394 4.697-9.394 3.758-10.334 2.818-11.273 1.879-11.273 0.939h-12.213l-3.758-0.939h-7.516l-3.758 0.939h-3.758l-7.516 1.879-5.637 1.879-2.818 1.879-2.818 0.939-2.818 1.879-2.818 0.939-1.879 1.879-3.758 2.818-1.879 1.879-1.879 2.818-1.879 1.879-1.879 2.818-1.879 1.879-1.879 2.818-3.758 11.273-2.818 11.273v27.244l-0.939 12.213-1.879 10.334-2.818 10.334-3.758 9.394-4.697 9.394-5.637 9.394-6.576 7.516-7.516 7.516-7.516 6.576-8.455 6.576-18.789 9.394-9.394 3.758-10.334 2.818-10.334 1.879-22.547 1.879-22.547-1.879-11.273-1.879-11.273-2.818-11.273-3.758-10.334-4.697-11.273-7.516-11.273-6.576-10.334-7.516-10.334-8.455-9.394-9.394-9.394-11.273-8.455-11.273-7.516-13.152-5.637-11.273-4.697-11.273-7.516-26.305-3.758-12.213-3.758-26.305-1.879-28.183v-70.459l3.758-56.367 0.939-27.244v-50.73l-0.939-12.213-0.939-11.273-1.879-12.213-1.879-10.334-5.637-20.668-7.516-18.789zM492.272 430.15l-7.516 18.789-2.818 10.334-2.818 9.394-1.879 10.334-1.879 11.273-0.939 11.273v63.883l0.939 27.244 3.758 56.367v14.092l0.939 14.092v14.092l-0.939 15.971v14.092l-5.637 39.457-2.818 13.152-2.818 12.213-2.818 14.092-3.758 12.213-11.273 22.547-7.516 13.152-8.455 11.273-9.394 11.273-10.334 9.394-9.394 8.455-10.334 8.455-10.334 6.576-11.273 5.637-11.273 4.697-11.273 3.758-11.273 2.818-10.334 2.818-22.547 1.879-22.547-1.879-10.334-1.879-10.334-2.818-9.394-3.758-18.789-9.394-8.455-6.576-7.516-6.576-13.152-15.031-5.637-8.455-4.697-9.394-7.516-18.789-1.879-10.334v-39.457l-2.818-11.273-2.818-8.455-1.879-3.758-5.637-8.455-1.879-1.879-1.879-2.818-1.879-0.939-1.879-1.879-8.455-5.637-2.818-0.939-2.818-1.879-5.637-1.879-7.516-1.879h-3.758l-3.758-0.939h-7.516l-4.697 0.939h-12.213l-11.273-0.939-11.273-1.879-10.334-2.818-9.394-3.758-9.394-4.697-7.516-5.637-15.031-13.152-6.576-7.516-5.637-8.455-9.394-18.789-3.758-10.334-2.818-10.334-1.879-10.334-1.879-22.547 1.879-22.547 1.879-11.273 2.818-11.273 3.758-11.273 4.697-11.273 5.637-11.273 15.031-20.668 8.455-9.394 20.668-18.789 12.213-9.394 13.152-7.516 11.273-6.576 11.273-4.697 24.426-7.516 12.213-2.818 13.152-2.818 13.152-1.879 28.183-1.879 13.152-0.939h42.275l42.275 2.818 54.488 1.879h51.67l12.213-0.939 22.547-1.879 11.273-1.879 10.334-1.879 10.334-2.818 9.394-3.758 8.455-5.637zM1542.576 851.963h325.989v-109.916h-185.072v-113.673h172.859v-123.068h-172.859v-125.886h185.072v-116.492h-325.989v589.035zM1100.095 851.963h222.65l25.365-2.818 8.455-1.879 7.516-1.879 7.516-2.818 7.516-1.879 7.516-2.818 6.576-2.818 7.516-2.818 6.576-2.818 13.152-7.516 11.273-9.394 4.697-4.697 14.092-16.91 11.273-19.728 5.637-15.031 1.879-7.516 3.758-16.91 2.818-28.183v-20.668l-2.818-19.728-3.758-22.547-1.879-4.697-1.879-5.637-9.394-23.486-2.818-3.758-2.818-4.697-8.455-11.273-7.516-7.516-6.576-4.697-3.758-2.818-4.697-2.818-3.758-2.818-18.789-11.273 8.455-1.879 7.516-2.818 13.152-5.637 6.576-3.758 4.697-3.758 5.637-3.758 4.697-4.697 1.879-2.818 1.879-1.879 2.818-1.879 1.879-2.818 0.939-2.818 3.758-5.637 4.697-14.092 0.939-3.758 0.939-2.818v-6.576l6.576-143.736v-15.031l0.939-6.576 1.879-11.273 1.879-4.697 0.939-3.758 3.758-5.637 3.758-3.758 1.879-0.939 1.879-1.879 3.758-1.879h1.879v-18.789h-131.523l-11.273 1.879-4.697 0.939-3.758 0.939-7.516 3.758-4.697 4.697-0.939 1.879-0.939 3.758-0.939 4.697-0.939 5.637v6.576l-0.939 6.576v136.22l-0.939 6.576-0.939 5.637-1.879 5.637-0.939 5.637-1.879 4.697-2.818 5.637-3.758 3.758-1.879 0.939-3.758 3.758-3.758 1.879-2.818 1.879-8.455 2.818-3.758 0.939h-2.818l-6.576 0.939h-40.396v-230.165h-141.857v588.095h0.939zM1923.993 851.963h140.917v-471.604h167.222v-116.492h-308.139v588.095zM2290.378 851.963h141.857v-589.035h-141.857v589.035zM2769.497 312.719l-2.818-8.455-1.879-2.818-1.879-3.758-1.879-2.818-11.273-11.273-11.273-8.455-3.758-1.879-4.697-2.818-4.697-1.879-4.697-2.818-9.394-3.758-5.637-1.879-9.394-3.758-11.273-1.879-4.697-0.939-16.91-2.818h-5.637l-5.637-0.939h-24.426l-6.576 0.939-5.637 0.939-6.576 0.939-5.637 0.939-5.637 1.879-6.576 1.879-5.637 1.879-11.273 5.637-22.547 15.031-5.637 4.697-7.516 7.516-2.818 1.879-3.758 5.637-4.697 5.637-4.697 6.576-3.758 6.576-3.758 7.516-5.637 15.031-2.818 8.455-1.879 8.455-3.758 18.789-1.879 20.668v325.989l0.939 9.394 0.939 8.455 5.637 25.365 8.455 22.547 3.758 7.516 7.516 13.152 9.394 11.273 14.092 14.092 3.758 2.818 2.818 2.818 2.818 1.879 3.758 2.818 2.818 1.879 15.031 7.516 16.91 5.637 9.394 2.818 18.789 3.758 10.334 1.879 22.547 1.879h44.154l10.334-0.939 10.334-1.879 18.789-3.758 25.365-8.455 7.516-2.818 8.455-3.758 7.516-3.758 6.576-4.697 7.516-4.697 13.152-9.394 5.637-5.637 5.637-6.576 5.637-5.637 4.697-6.576 6.576-1.879 4.697-7.516 3.758-7.516 5.637-15.031 1.879-8.455 2.818-8.455 3.758-18.789 0.939-10.334v-70.459h-143.736v84.55l-0.939 3.758-0.939 2.818-3.758 5.637-2.818 2.818-5.637 3.758-7.516 3.758-11.273 2.818h-11.273l-9.394-1.879-3.758-0.939-4.697-0.939-15.031-7.516-3.758-2.818-5.637-5.637-1.879-2.818-1.879-3.758-1.879-7.516v-328.807l0.939-5.637v-2.818l0.939-2.818 0.939-1.879 0.939-2.818 1.879-3.758 1.879-1.879 1.879-3.758 9.394-9.394 3.758-2.818 7.516-3.758 4.697-1.879 3.758-1.879 9.394-1.879h10.334l7.516 1.879 11.273 5.637 2.818 2.818 3.758 1.879 3.758 2.818 2.818 2.818 5.637 7.516 0.939 3.758 1.879 3.758 0.939 3.758v85.49h-47.912v104.279h185.072v-316.594h-93.945l-7.516 48.851zM3052.272 851.963h161.585l131.523-589.035h-143.736l-18.789 116.492h-105.218l-18.789-116.492h-140.917l134.341 589.035zM3390.473 851.963h223.589l16.91-1.879 7.516-0.939 8.455-1.879 7.516-1.879 8.455-2.818 6.576-1.879 7.516-2.818 19.728-8.455 11.273-7.516 11.273-9.394 4.697-4.697 9.394-11.273 3.758-5.637 7.516-13.152 2.818-6.576 8.455-22.547 1.879-8.455 0.939-8.455 1.879-9.394 1.879-18.789v-27.244l-1.879-13.152-1.879-11.273-1.879-5.637-0.939-5.637-0.939-4.697-1.879-5.637-7.516-18.789-2.818-4.697-2.818-3.758-2.818-4.697-5.637-7.516-15.031-15.031-3.758-2.818-9.394-5.637-3.758-2.818-14.092-8.455 7.516-1.879 7.516-2.818 13.152-5.637 11.273-7.516 4.697-3.758 11.273-11.273 3.758-5.637 0.939-2.818 1.879-2.818 0.939-2.818 1.879-2.818 2.818-8.455v-6.576l0.939-2.818v-7.516l6.576-143.736v-6.576l0.939-7.516 0.939-6.576 0.939-5.637 1.879-5.637 0.939-4.697 0.939-3.758 3.758-5.637 3.758-3.758 1.879-0.939 1.879-1.879 3.758-1.879h2.818v-18.789h-131.523l-5.637 0.939h-2.818l-9.394 1.879-3.758 1.879-5.637 5.637v0.939l-0.939 1.879-0.939 3.758-0.939 4.697-0.939 5.637v152.191l-0.939 6.576-1.879 11.273-1.879 5.637-1.879 4.697-0.939 1.879-1.879 1.879-1.879 3.758-6.576 6.576-1.879 0.939-2.818 0.939-1.879 1.879-11.273 3.758h-3.758l-6.576 0.939h-44.154v-230.165h-141.857v588.095zM3833.894 851.963h325.989v-109.916h-185.072v-113.673h173.798v-123.068h-173.798v-125.886h185.072v-116.492h-325.989v589.035zM3039.119 938.393l4.697-9.394 5.637-8.455 5.637-6.576 5.637-5.637 5.637-3.758 6.576-3.758 5.637-1.879 13.152-1.879h6.576l6.576 0.939 26.305 7.516 6.576 2.818 24.426 11.273 5.637 2.818 16.91 5.637 4.697 0.939h4.697l9.394-1.879 7.516-5.637 3.758-3.758 2.818-5.637 1.879 1.879 5.637 3.758 1.879 0.939-4.697 9.394-4.697 8.455-5.637 6.576-5.637 5.637-5.637 4.697-5.637 2.818-6.576 2.818-7.516 0.939h-13.152l-13.152-1.879-26.305-7.516-24.426-11.273-22.547-7.516-4.697-0.939h-9.394l-4.697 1.879-3.758 1.879-3.758 2.818-2.818 4.697-3.758 4.697-4.697-4.697-2.818-1.879-1.879-1.879zM3565.211 598.312h8.455l8.455 2.818 3.758 1.879 4.697 1.879 3.758 2.818 9.394 7.516 1.879 2.818 1.879 1.879 1.879 2.818 1.879 1.879 1.879 2.818 0.939 2.818 1.879 2.818 0.939 3.758 0.939 2.818 3.758 15.031v31.002l-0.939 5.637-0.939 6.576-1.879 5.637-0.939 4.697-1.879 5.637-1.879 3.758-1.879 4.697-3.758 7.516-3.758 5.637-4.697 4.697-5.637 3.758-8.455 2.818-6.576 1.879-19.728 2.818-7.516 0.939h-15.971v-156.888h30.062v2.818zM3164.066 487.457l-35.699 261.167-39.457-261.167h75.156zM1273.894 598.312h8.455l2.818 0.939 1.879 0.939 2.818 0.939 1.879 0.939 2.818 0.939 4.697 1.879 4.697 2.818 9.394 7.516 1.879 2.818 1.879 1.879 1.879 2.818 1.879 1.879 3.758 5.637 0.939 2.818 0.939 3.758 0.939 2.818 2.818 11.273v3.758l0.939 4.697v26.305l-0.939 5.637-0.939 6.576-1.879 5.637-0.939 4.697-1.879 5.637-1.879 3.758-1.879 4.697-3.758 7.516-5.637 8.455-5.637 3.758-1.879 1.879-14.092 4.697-13.152 1.879-15.031 1.879h-15.971v-156.888h28.183v2.818zM3259.89 178.378v-189.769h-35.699v18.789l-5.637-8.455-3.758-3.758-5.637-3.758-1.879-0.939-2.818-0.939-2.818-1.879-5.637-1.879h-2.818l-3.758-0.939h-12.213l-2.818 0.939h-2.818l-2.818 0.939h-2.818l-8.455 2.818-2.818 1.879-1.879 1.879-2.818 1.879-9.394 9.394-7.516 11.273-1.879 5.637-3.758 15.031v3.758l-0.939 3.758v7.516l-0.939 3.758 0.939 3.758v7.516l0.939 3.758v3.758l1.879 7.516 0.939 2.818 0.939 3.758 1.879 5.637 9.394 14.092 1.879 1.879 1.879 2.818 5.637 5.637 2.818 1.879 2.818 0.939 5.637 3.758 8.455 2.818h23.486l11.273-3.758 8.455-5.637 5.637-5.637 3.758-5.637v66.701h35.699v4.697zM3162.187 60.007v-10.334l2.818-14.092 0.939-3.758 5.637-8.455 8.455-5.637 5.637-1.879 3.758-0.939h7.516l3.758 0.939 2.818 0.939 3.758 0.939 2.818 1.879 5.637 5.637 3.758 5.637 1.879 3.758 2.818 14.092v19.728l-0.939 4.697-0.939 3.758-1.879 3.758-0.939 2.818-5.637 8.455-2.818 2.818-1.879 0.939-2.818 1.879-2.818 0.939-3.758 0.939-2.818 0.939h-7.516l-8.455-2.818-2.818-1.879h-2.818l-2.818-2.818-3.758-5.637-1.879-3.758-3.758-15.031v-8.455h-0.939zM2965.842-10.451v139.978h36.639v-16.91l1.879 1.879 1.879 2.818 2.818 1.879 1.879 1.879 5.637 3.758 2.818 0.939 2.818 1.879 11.273 3.758h2.818l3.758 0.939h12.213l5.637-0.939 4.697-0.939 4.697-1.879 11.273-5.637 5.637-5.637 2.818-3.758 1.879-3.758 1.879-4.697 1.879-9.394 0.939-5.637 0.939-6.576v-94.884h-37.578v93.945l-1.879 5.637-3.758 7.516-5.637 2.818h-1.879l-2.818 0.939h-12.213l-8.455-2.818-1.879-1.879-1.879-0.939-5.637-5.637-0.939-2.818-1.879-2.818v-2.818l-0.939-2.818v-89.248h-41.336v1.879zM2885.050 144.558v34.76h37.578v-34.76h-37.578zM2885.050-10.451v139.978h37.578v-139.978h-37.578zM2715.009 178.378h36.639v-66.701l3.758 5.637 3.758 3.758 2.818 1.879 1.879 1.879 2.818 1.879 2.818 0.939 2.818 1.879 8.455 2.818h22.547l8.455-2.818 5.637-3.758 2.818-0.939 1.879-1.879 2.818-1.879 3.758-3.758 1.879-2.818 1.879-1.879 7.516-11.273 1.879-5.637 1.879-2.818 0.939-3.758 0.939-2.818 0.939-3.758v-3.758l0.939-3.758v-31.941l-0.939-3.758v-3.758l-2.818-11.273-1.879-2.818-1.879-5.637-5.637-8.455-9.394-9.394-2.818-1.879-1.879-1.879-2.818-1.879-8.455-2.818h-2.818l-2.818-0.939h-2.818l-2.818-0.939h-12.213l-3.758 0.939h-2.818l-5.637 1.879-2.818 1.879-5.637 1.879-3.758 3.758-5.637 3.758-5.637 8.455v-18.789h-34.76v186.95zM2812.712 60.007v9.394l-2.818 11.273-1.879 3.758-0.939 3.758-5.637 8.455-2.818 1.879-1.879 1.879-8.455 2.818h-6.576l-7.516-1.879-2.818-0.939-2.818-1.879-2.818-0.939-9.394-14.092-1.879-7.516-0.939-4.697v-19.728l2.818-14.092 0.939-3.758 3.758-5.637 3.758-3.758 5.637-3.758 5.637-1.879 3.758-0.939h7.516l5.637 1.879 3.758 0.939 5.637 3.758 1.879 1.879 5.637 8.455 0.939 3.758 2.818 14.092v4.697l-0.939 2.818zM2577.85-12.33h-31.002l-4.697 0.939-3.758 0.939-2.818 0.939-5.637 3.758-3.758 3.758-1.879 2.818-1.879 7.516-1.879 9.394v87.369h-18.789v26.305h18.789v38.517h36.639v-38.517h21.607v-26.305h-21.607v-79.853l1.879-3.758 0.939-0.939 3.758-1.879h15.971v-31.002h-1.879zM2438.811 6.459l-1.879-2.818-2.818-1.879-3.758-3.758-11.273-7.516-5.637-1.879-3.758-0.939-5.637-1.879-3.758-0.939h-12.213l-9.394 1.879-3.758 0.939-11.273 5.637-5.637 5.637-3.758 7.516-1.879 7.516-0.939 4.697v17.85l0.939 3.758 0.939 4.697 0.939 3.758 1.879 2.818 1.879 3.758 5.637 5.637 7.516 3.758 9.394 3.758 11.273 3.758 5.637 0.939 7.516 1.879h3.758l4.697 0.939 5.637 0.939 4.697 0.939 7.516 3.758 3.758 3.758v0.939l0.939 0.939v8.455l-1.879 3.758-1.879 1.879-1.879 0.939-0.939 0.939-5.637 2.818h-4.697l-2.818 0.939h-4.697l-2.818-0.939h-1.879l-3.758-1.879-2.818-0.939-5.637-2.818-1.879-1.879-1.879-3.758v-3.758l-0.939-1.879v-1.879h-34.76v7.516l0.939 4.697v1.879l4.697 9.394 1.879 1.879 0.939 1.879 1.879 1.879 1.879 0.939 0.939 1.879 5.637 5.637 3.758 1.879 4.697 1.879 5.637 1.879 4.697 1.879 5.637 0.939h27.244l6.576-0.939 11.273-1.879 14.092-5.637 3.758-2.818 6.576-6.576 3.758-7.516v-4.697l0.939-3.758v-89.248l0.939-3.758 1.879-5.637 0.939-1.879 1.879-1.879 0.939-1.879 1.879-0.939v-6.576h-38.517l-3.758 7.516v11.273zM2437.872 58.128l-9.394-3.758-5.637-1.879-11.273-1.879-3.758-0.939h-1.879l-0.939-0.939-4.697-0.939-5.637-2.818-3.758-3.758-0.939-1.879-1.879-1.879-0.939-1.879v-1.879l-0.939-1.879v-3.758l0.939-1.879v-1.879l1.879-3.758 3.758-3.758 5.637-2.818 0.939-0.939h9.394l3.758 0.939 2.818 0.939 3.758 0.939 2.818 0.939 5.637 3.758 5.637 5.637 3.758 11.273v20.668h0.939zM2192.675-10.451v188.829h36.639v-64.822l11.273 11.273 2.818 1.879 2.818 0.939 2.818 1.879 2.818 0.939 1.879 0.939 2.818 0.939h2.818l2.818 0.939h15.031l8.455-2.818 1.879-0.939 5.637-1.879 3.758-1.879 9.394-9.394 3.758-5.637 0.939-2.818 0.939-3.758v-3.758l0.939-4.697v-107.097h-36.639v90.187l-0.939 4.697v3.758l-1.879 5.637-2.818 5.637-5.637 2.818-2.818 0.939h-11.273l-8.455-2.818-1.879-1.879-1.879-0.939-5.637-5.637-3.758-11.273v-89.248h-36.639v-0.939zM2160.734-12.33h-31.002l-11.273 2.818-5.637 3.758-3.758 3.758-1.879 2.818-1.879 7.516-0.939 4.697v92.066h-18.789v26.305h18.789v38.517h36.639v-38.517h21.607v-26.305h-21.607v-79.853l1.879-3.758 1.879-1.879 2.818-0.939h15.971v-31.002h-2.818zM1831.927 34.642h37.578v-5.637l0.939-2.818 2.818-5.637 9.394-4.697h2.818l2.818-0.939h19.728l1.879 0.939h1.879l5.637 2.818 3.758 3.758 0.939 1.879v5.637l-0.939 0.939v0.939l-3.758 3.758-2.818 1.879-3.758 0.939-4.697 0.939-4.697 1.879-4.697 0.939-7.516 1.879-2.818 0.939-13.152 3.758-5.637 1.879-9.394 3.758-3.758 1.879-3.758 2.818-2.818 1.879-7.516 11.273-1.879 3.758-0.939 2.818v13.152l0.939 4.697 0.939 1.879v1.879l3.758 7.516 1.879 1.879 0.939 1.879 7.516 7.516 9.394 5.637 4.697 1.879 11.273 3.758 6.576 0.939h25.365l6.576-0.939 11.273-3.758 4.697-1.879 1.879-0.939 2.818-0.939 1.879-0.939 7.516-7.516h-2.818l0.939-1.879 1.879-1.879 0.939-1.879 1.879-1.879 0.939-1.879 0.939-2.818 0.939-1.879 0.939-2.818 0.939-5.637v-5.637h-35.699v5.637l-2.818 5.637-1.879 1.879-5.637 2.818h-1.879l-1.879 0.939-2.818 0.939h-10.334l-3.758-0.939-1.879-0.939h-3.758l-5.637-5.637v-7.516l2.818-2.818 1.879-0.939 0.939-0.939 3.758-1.879 4.697-1.879 5.637-1.879 7.516-0.939 5.637-1.879h1.879l1.879-0.939 6.576-1.879 11.273-3.758 4.697-1.879 11.273-5.637 2.818-1.879 2.818-2.818 3.758-5.637 0.939-2.818 2.818-11.273v-12.213l-2.818-8.455v-1.879l-0.939-2.818-0.939-1.879-1.879-1.879-0.939-1.879-1.879-1.879-0.939-1.879-5.637-5.637-1.879-0.939-2.818-0.939-4.697-2.818-2.818-1.879-11.273-3.758-13.152-1.879-7.516-0.939h-15.031l-13.152 1.879-5.637 0.939-5.637 1.879-2.818 1.879-2.818 0.939-3.758 1.879-2.818 1.879-9.394 9.394-0.939 1.879-1.879 1.879-2.818 5.637-0.939 2.818-0.939 1.879v5.637l-0.939 2.818v7.516h0.939zM1767.105 31.824h37.578l-1.879-5.637-3.758-9.394-2.818-4.697-2.818-3.758-11.273-11.273-9.394-5.637-9.394-3.758-16.91-2.818h-13.152l-2.818 0.939h-2.818l-3.758 0.939h-3.758l-11.273 3.758-1.879 1.879-2.818 1.879-1.879 1.879-2.818 1.879-1.879 1.879-2.818 1.879-1.879 1.879-7.516 11.273-0.939 2.818-1.879 3.758-0.939 2.818-3.758 15.031v32.881l4.697 18.789 1.879 2.818 0.939 2.818 9.394 14.092 1.879 1.879 11.273 7.516 2.818 0.939 5.637 3.758 5.637 1.879 7.516 1.879h33.82l2.818-0.939 3.758-0.939 2.818-0.939 2.818-1.879 2.818-0.939 11.273-7.516 6.576-6.576 5.637-8.455 0.939-2.818 1.879-2.818 0.939-2.818 4.697-18.789v-7.516l0.939-3.758v-11.273l-0.939-1.879v-1.879h-93.006v-3.758l0.939-2.818 0.939-3.758 2.818-8.455 0.939-1.879 5.637-5.637 2.818-1.879 1.879-0.939 5.637-1.879h10.334l3.758 0.939 1.879 0.939h1.879l5.637 2.818 0.939 0.939 0.939 1.879 0.939 0.939 1.879 3.758-0.939 1.879 0.939 1.879zM1712.617 74.099h54.488l-0.939 3.758v6.576l-0.939 2.818-0.939 1.879-0.939 2.818-1.879 1.879-0.939 2.818-1.879 0.939-2.818 1.879-3.758 1.879-8.455 2.818h-5.637l-8.455-2.818-3.758-1.879-1.879-1.879-1.879-0.939-1.879-2.818-1.879-1.879-0.939-2.818-0.939-1.879-1.879-5.637-0.939-3.758v-3.758h-0.939zM1639.339 129.527v-139.978h-36.639v16.91l-1.879-2.818-1.879-1.879-2.818-1.879-5.637-5.637-2.818-0.939-2.818-1.879-11.273-3.758h-3.758l-2.818-0.939h-11.273l-14.092 2.818-7.516 3.758-3.758 2.818-5.637 5.637-3.758 7.516-1.879 4.697-1.879 9.394v106.158h37.578v-92.066l0.939-2.818v-2.818l0.939-2.818 2.818-5.637 1.879-0.939 0.939-0.939 3.758-1.879h3.758l2.818-0.939h11.273l2.818 0.939 1.879 0.939 2.818 0.939 7.516 7.516 3.758 11.273v89.248h36.639zM1435.479-10.451v188.829h37.578v-189.769h-37.578v0.939zM1356.565 6.459l-1.879-2.818-1.879-1.879-2.818-1.879-3.758-3.758-8.455-5.637-5.637-1.879-3.758-0.939-5.637-1.879-3.758-0.939h-12.213l-4.697 0.939-7.516 1.879-3.758 1.879-5.637 3.758-5.637 5.637-5.637 11.273-0.939 3.758-0.939 4.697v17.85l0.939 3.758 0.939 4.697 0.939 3.758 1.879 2.818 1.879 3.758 5.637 5.637 7.516 3.758 14.092 5.637 5.637 1.879 5.637 0.939 2.818 0.939 3.758 0.939h3.758l4.697 0.939 5.637 0.939 4.697 0.939 3.758 1.879 2.818 1.879 1.879 0.939 3.758 3.758v9.394l-1.879 3.758-1.879 1.879-1.879 0.939-0.939 0.939-5.637 2.818h-4.697l-2.818 0.939h-5.637l-2.818-0.939h-1.879l-9.394-4.697-2.818-2.818-2.818-5.637v-5.637h-34.76v7.516l0.939 4.697v3.758l5.637 11.273 1.879 1.879 1.879 0.939 0.939 1.879 5.637 5.637 3.758 1.879 4.697 1.879 11.273 3.758 5.637 0.939h26.305l6.576-0.939 11.273-1.879 9.394-3.758 3.758-1.879 3.758-2.818 4.697-4.697 4.697-9.394 2.818-2.818v-1.879l0.939-3.758v-89.248l0.939-3.758 1.879-5.637 1.879-3.758 1.879-1.879 1.879-0.939v-6.576h-38.517l-1.879 3.758v1.879l-1.879 3.758v4.697l-0.939 4.697zM1355.626 58.128l-4.697-1.879-11.273-3.758-11.273-1.879-3.758-0.939h-1.879l-0.939-0.939-4.697-0.939-7.516-3.758-2.818-2.818-0.939-1.879v-1.879l-0.939-1.879v-9.394l0.939-1.879v-1.879l0.939-1.879 3.758-3.758 1.879-0.939 0.939-0.939 3.758-1.879h9.394l7.516 1.879 5.637 1.879 5.637 3.758 5.637 5.637 3.758 11.273v20.668h0.939zM1162.099-10.451l-64.822 189.769h43.215l40.396-141.857 41.336 141.857h42.275l-63.883-189.769h-38.517zM4369.38 819.083h39.457v-580.58h-39.457v580.58zM4629.607 548.521h138.099c55.428 0 93.006-17.85 93.006-72.338 0-29.123-14.092-48.851-39.457-61.064 35.699-10.334 53.549-37.578 53.549-74.217 0-59.185-50.73-84.55-103.339-84.55h-141.857v292.169zM4693.49 429.211h64.822c22.547 0 39.457 10.334 39.457 34.76 0 28.183-21.607 33.82-44.154 33.82h-60.125v-68.58zM4693.49 305.204h69.519c25.365 0 46.972 8.455 46.972 38.517s-18.789 42.275-46.033 42.275h-70.459v-80.793zM4918.018 548.521h157.828c52.609 0 85.49-36.639 85.49-80.793 0-33.82-14.092-60.125-46.972-73.277v-0.939c31.941-8.455 40.396-38.517 42.275-68.58 0.939-17.85 0.939-52.609 12.213-69.519h-64.822c-7.516 18.789-6.576 46.972-10.334 70.459-4.697 31.002-15.971 44.154-48.851 44.154h-63.883v-114.613h-63.883v293.108zM4981.901 415.119h70.459c29.123 0 44.154 12.213 44.154 42.275 0 28.183-15.971 40.396-44.154 40.396h-70.459v-82.672zM5344.528 555.097c91.127 0 143.736-67.64 143.736-155.009 0-84.55-53.549-152.191-143.736-152.191s-143.736 67.64-143.736 152.191c0 87.369 53.549 155.009 143.736 155.009zM5344.528 302.385c58.246 0 79.853 48.851 79.853 97.703 0 51.67-21.607 100.521-79.853 100.521-57.306 0-78.914-48.851-78.914-100.521-0.939-48.851 20.668-97.703 78.914-97.703zM5531.479 548.521h63.883v-121.189l114.613 121.189h80.793l-114.613-115.552 125.886-177.556h-80.793l-88.308 131.523-36.639-37.578v-93.945h-63.883v293.108zM5827.406 548.521h64.822v-293.108h-64.822v293.108zM5948.594 548.521h63.883l122.128-196.345h0.939v196.345h60.125v-293.108h-64.822l-121.189 196.345h-0.939v-196.345h-60.125v293.108zM6463.413 289.233c-22.547-29.123-52.609-40.396-80.793-40.396-90.187 0-143.736 67.64-143.736 152.191 0 87.369 53.549 155.009 143.736 155.009 60.125 0 116.492-37.578 123.068-103.339h-61.064c-7.516 31.941-31.941 48.851-62.004 48.851-57.306 0-79.853-48.851-79.853-100.521 0-48.851 21.607-97.703 79.853-97.703 42.275 0 65.761 22.547 69.519 62.943h-63.883v47.912h123.068v-158.767h-41.336l-6.576 33.82z" />
<glyph unicode="&#xe936;" d="M967.111 448c0-251.351-203.76-455.111-455.111-455.111s-455.111 203.76-455.111 455.111c0 251.351 203.76 455.111 455.111 455.111s455.111-203.76 455.111-455.111z" />
<glyph unicode="&#xe937;" glyph-name="delete-circle" data-tags="delete circle" d="M682.6 635.7h-68.3v34.1c0.1 10.3 0.1 34.2-34 34.2h-136.6c-34.1 0-34.1-23.9-34.1-34.1v-34.1h-68.3c-20.5 0-34.1-13.7-34.1-34.1v-68.3h34.1v-307.2c0-20.5 13.7-34.1 34.1-34.1h273.1c20.5 0 34.1 13.7 34.1 34.1v307.1h34.1v68.3c0 20.5-13.7 34.1-34.1 34.1zM443.7 669.8h136.5v-34.1h-136.5v34.1zM375.5 226.1v307.2h273.1v-307.2h-273.1zM682.6 567.5h-341.3v34.1h341.3v-34.1zM546.2 499.2h34.1v-238.9h-34.1v238.9zM443.8 499.2h34.1v-238.9h-34.1v238.9z" />
<glyph unicode="&#xe938;" horiz-adv-x="1062" d="M530.963 941.037c273.067 0 493.037-219.97 493.037-493.037s-219.97-493.037-493.037-493.037-493.037 219.97-493.037 493.037c0 273.067 219.97 493.037 493.037 493.037z" />
<glyph unicode="&#xe939;" glyph-name="add-research" data-tags="add research" d="M754.526 399.495c-134.737 0-242.526-102.4-242.526-231.747s107.789-231.747 242.526-231.747 242.526 102.4 242.526 231.747c0 129.347-107.789 231.747-242.526 231.747zM905.432 130.021h-113.179v-107.789h-75.453v107.789h-113.179v70.063h113.179v107.789h75.453v-107.789h113.179v-70.063zM549.726 927.663v-161.684h172.463l-172.463 161.684zM150.905 151.579v70.063h296.421c5.389 32.337 16.168 64.674 32.337 91.621h-328.758v70.063h388.042c53.895 53.895 134.737 86.232 215.579 86.232v220.968h-280.253v269.474h-447.326v-964.716h474.274c-32.337 43.116-53.895 97.011-59.284 156.295h-291.032zM150.905 545.011h485.053v-70.063h-485.053v70.063z" />
<glyph unicode="&#xe93a;" glyph-name="full-rated-gold" data-tags="full rated-gold" horiz-adv-x="1092" d="M1092.267 570.88l-368.64 68.267-177.493 320.853-177.493-320.853-368.64-68.267 252.587-273.067-40.96-361.813 334.507 157.013 334.507-157.013-40.96 361.813z" />
<glyph unicode="&#xe93b;" glyph-name="full-rated-grey" data-tags="full rated-grey" horiz-adv-x="1092" d="M1092.267 570.88l-368.64 68.267-177.493 320.853-177.493-320.853-368.64-68.267 252.587-273.067-40.96-361.813 334.507 157.013 334.507-157.013-40.96 361.813z" />
<glyph unicode="&#xe93c;" glyph-name="graph1" data-tags="graph1" horiz-adv-x="1141" d="M263.314-64h87.771v263.314h-87.771v-263.314zM789.943-64h87.771v906.971h-87.771v-906.971zM526.629-64h87.771v468.114h-87.771v-468.114zM1053.257 960v-1024h87.771v1024h-87.771zM0-64h87.771v476.891h-87.771v-476.891z" />
<glyph unicode="&#xe93d;" glyph-name="graph2" data-tags="graph2" horiz-adv-x="1051" d="M242.526-64h80.842v538.947h-80.842v-538.947zM727.579-64h80.842v404.211h-80.842v-404.211zM485.053-64h80.842v1024h-80.842v-1024zM970.105 434.526v-498.526h80.842v498.526h-80.842zM0-64h80.842v700.632h-80.842v-700.632z" />
<glyph unicode="&#xe93e;" glyph-name="graph3" data-tags="graph3" horiz-adv-x="1051" d="M242.526-64h80.842v614.4h-80.842v-614.4zM727.579-64h80.842v1024h-80.842v-1024zM485.053-64h80.842v350.316h-80.842v-350.316zM970.105 434.526v-498.526h80.842v498.526h-80.842zM0-64h80.842v439.242h-80.842v-439.242z" />
<glyph unicode="&#xe93f;" glyph-name="graph4" data-tags="graph4" horiz-adv-x="1050" d="M249.436-50.872h78.769v598.646h-78.769v-598.646zM722.051-50.872h78.769v420.103h-78.769v-420.103zM485.744-50.872h78.769v341.333h-78.769v-341.333zM958.359 710.564v-761.436h78.769v761.436h-78.769zM13.128-50.872h78.769v997.744h-78.769v-997.744z" />
<glyph unicode="&#xe940;" glyph-name="growth" data-tags="growth" horiz-adv-x="1536" d="M836.267 328.533l145.067 204.8h273.067v-256l281.6 341.333-281.6 341.333v-341.333h-349.867l-136.533-196.267-136.533 196.267h-349.867v341.333l-281.6-341.333 281.6-341.333v256h273.067l145.067-204.8-213.333-307.2h-486.4v-85.333h554.667l213.333 298.667 213.333-298.667h554.667v85.333h-486.4z" />
<glyph unicode="&#xe941;" glyph-name="half-rated-gold" data-tags="half rated-gold" horiz-adv-x="546" d="M546.133 960v-866.987l-334.507-157.013 47.787 361.813-259.413 273.067 368.64 68.267 177.493 320.853z" />
<glyph unicode="&#xe942;" glyph-name="half-rated-grey" data-tags="half rated-grey" horiz-adv-x="546" d="M0 960l177.493-320.853 368.64-68.267-252.587-273.067 40.96-361.813-334.507 157.013v866.987z" />
<glyph unicode="&#xe943;" horiz-adv-x="1035" d="M937.768 86.905c-26.947 393.432-328.758 592.842-328.758 592.842s59.284 220.968 113.179 226.358c48.505 0-118.568 80.842-177.853-43.116 0 0-150.905 134.737-220.968 86.232-64.674-48.505 118.568-161.684 97.011-269.474-409.6-231.747-312.589-592.842-312.589-592.842-10.779-86.232-156.295-59.284-86.232-86.232 64.674-26.947 177.853 0 177.853 0 253.305-145.516 657.516 0 657.516 0 64.674-86.232 177.853 0 177.853 0-37.726 0-97.011 86.232-97.011 86.232z" />
<glyph unicode="&#xe944;" glyph-name="upload" data-tags="upload" d="M680.2 527v0c-1.5 93.6-71.7 175.5-166.8 175.5-42.4 0-83.4-14.6-114.1-42.4-45.3-45.3-48.3-93.6-49.7-93.6-98 0-155.1-65.8-155.1-144.8s74.6-146.3 155.1-146.3h96.5c7.3 0 19 2.9 19 10.2s-11.7 10.2-19 10.2h-96.5c-83.4 0-136 61.4-136 127.3s48.3 125.8 115.6 125.8c2.9 0 16.1 0 20.5 0 19 0 16.1 5.9 19 19 16.1 45.3 20.5 60 46.8 83.4 29.3 24.9 61.4 33.6 98 33.6 81.9 0 147.7-76.1 147.7-156.5 0-16.1 2.9-19 19-19 57.1 0 117-46.8 117-103.9s-39.5-111.2-96.5-111.2h-117c-7.3 0-19-1.5-19-8.8s11.7-10.2 19-10.2h117c71.7 0 117 58.5 117 130.2-1.4 70.3-65.8 121.5-137.5 121.5zM525.2 635.2c0 7.3-13.2 8.8-19 8.8v0c-58.5 0-98-39.5-98-96.5 0-19 8.8-19 10.2-19 5.9 0 10.2 10.2 10.2 20.5 0 38 38 77.5 77.5 77.5 7.4 0 19.1 1.4 19.1 8.7zM560.3 398.3l-35.1 45.3c-5.9 7.3-14.6 7.3-20.5 0l-35.1-45.3c-4.4-5.9-4.4-14.6-1.5-20.5s10.2-5.9 13.2-1.5l23.4 30.7v-174c0-7.3 4.4-14.6 10.2-14.6s10.2 5.9 10.2 14.6v174l23.4-30.7c1.5-2.9 4.4-2.9 5.9-2.9 2.9 0 5.9 1.5 7.3 4.4 3 5.8 3 14.6-1.4 20.5v0zM512 960c-282.3 0-512-229.7-512-512s229.7-512 512-512 512 229.7 512 512-229.7 512-512 512zM512-34.7c-266.2 0-482.7 216.5-482.7 482.7s216.5 482.7 482.7 482.7v0c266.2 0 482.7-216.5 482.7-482.7s-216.5-482.7-482.7-482.7z" />
<glyph unicode="&#xe945;" glyph-name="Start-SIP" data-tags="Start SIP" horiz-adv-x="1365" d="M1274.311 391.111v290.133h-318.578c0 153.6-125.156 278.756-273.067 278.756-153.6 0-273.067-125.156-273.067-278.756h-318.578v-290.133c-51.2-17.067-91.022-68.267-91.022-130.844 0-79.644 62.578-142.222 136.533-142.222s136.533 62.578 136.533 142.222c0 62.578-39.822 113.778-91.022 130.844v199.111h244.622c34.133-96.711 113.778-164.978 210.489-182.044v-199.111c-51.2-17.067-91.022-68.267-91.022-130.844 0-79.644 62.578-142.222 136.533-142.222s136.533 62.578 136.533 142.222c0 62.578-39.822 113.778-91.022 130.844v199.111c96.711 17.067 176.356 85.333 210.489 182.044h244.622v-199.111c-51.2-17.067-91.022-68.267-91.022-130.844 0-79.644 62.578-142.222 136.533-142.222s136.533 62.578 136.533 142.222c0 62.578-39.822 113.778-91.022 130.844zM682.667 493.511c-102.4 0-182.044 85.333-182.044 187.733s79.644 187.733 182.044 187.733 182.044-85.333 182.044-187.733-79.644-187.733-182.044-187.733z" />
<glyph unicode="&#xe946;" glyph-name="Rupee-dropdown2" data-tags="Rupee dropdown" horiz-adv-x="1062" d="M531 941c-273.1 0-493-220-493-493s220-493 493-493 493 220 493 493-220 493-493 493zM694 520.1c0-7.6-3.8-11.4-11.4-11.4-19 0-34.1 0-53.1 0-3.8 0-3.8 0-3.8-3.8-3.8-30.3-19-56.9-45.5-79.6-22.8-19-45.5-26.5-72.1-34.1-7.6 0-15.2-3.8-22.8-3.8 0 0 0 0 3.8-3.8 37.9-41.7 72.1-83.4 110-125.2 15.2-19 30.3-37.9 45.5-56.9 3.8-3.8 3.8-7.6 3.8-11.4-3.8-3.8-7.6-7.6-11.4-7.6-22.8 0-41.7 0-64.5 0-3.8 0-7.6 0-11.4 3.8-30.3 37.9-64.5 75.9-94.8 110-22.8 26.5-49.3 56.9-75.9 83.4-3.8 3.8-7.6 11.4-7.6 19 0 11.4 0 22.8 0 34.1s3.8 15.2 15.2 15.2c19 0 37.9 0 56.9 0s41.7 7.6 56.9 19c11.4 11.4 22.8 22.8 26.5 41.7v0c-3.8 0-3.8 0-3.8 0-45.5 0-94.8 0-140.3 0-3.8 0-3.8 0-7.6 0s-7.6 3.8-7.6 7.6c0 11.4 0 26.5 0 37.9 0 3.8 3.8 7.6 7.6 7.6s3.8 0 7.6 0c45.5 0 91 0 132.7 0h3.8c-3.8 3.8-7.6 7.6-11.4 15.2-11.4 11.4-26.5 19-41.7 22.8s-30.3 3.8-45.5 3.8-30.3 0-45.5 0c-11.4 0-15.2 3.8-15.2 15.2 0 15.2 0 26.5 0 41.7 0 11.4 3.8 15.2 15.2 15.2 94.8 0 189.6 0 284.4 0 11.4 0 15.2-3.8 15.2-15.2s0-19 0-30.3-3.8-15.2-15.2-15.2c-22.8 0-49.3 0-72.1 0h-3.8c0 0 0-3.8 3.8-3.8 7.6-11.4 15.2-26.5 19-41.7 0-3.8 3.8-3.8 7.6-3.8 19 0 34.1 0 53.1 0 11.4 0 15.2-3.8 15.2-15.2s0.2-19.1 0.2-30.4z" />
<glyph unicode="&#xe947;" horiz-adv-x="1075" d="M614.4 38.4v921.6h-512v-921.6h-102.4v-102.4h1075.2v102.4h-460.8zM460.8 38.4h-204.8v358.4h204.8v-358.4zM460.8 550.4h-204.8v102.4h204.8v-102.4zM460.8 704h-204.8v102.4h204.8v-102.4z" />
<glyph unicode="&#xe948;" d="M683.886 632.686h-343.771v54.857c0 20.114 16.457 36.571 36.571 36.571h268.8c20.114 0 36.571-16.457 36.571-36.571v-54.857z" />
<glyph unicode="&#xe949;" d="M693.029 623.543h-362.057v64c0 25.6 20.114 45.714 45.714 45.714h268.8c25.6 0 45.714-20.114 45.714-45.714v-64zM349.257 641.829h323.657v45.714c0 14.629-12.8 27.429-27.429 27.429h-268.8c-14.629 0-27.429-12.8-27.429-27.429v-45.714z" />
<glyph unicode="&#xe94a;" d="M548.571 208.457h-58.514c-5.486 0-9.143 3.657-9.143 9.143s3.657 9.143 9.143 9.143h58.514c5.486 0 9.143-3.657 9.143-9.143s-5.486-9.143-9.143-9.143z" />
<glyph unicode="&#xe94b;" d="M1024 448c0-282.77-229.23-512-512-512s-512 229.23-512 512c0 282.77 229.23 512 512 512s512-229.23 512-512z" />
<glyph unicode="&#xe94c;" d="M182.857 292.571h694.857v-73.143h-694.857v73.143z" />
<glyph unicode="&#xe94d;" d="M146.286 676.571h694.857v-347.429h-694.857v347.429z" />
<glyph unicode="&#xe94e;" d="M850.286 320h-713.143v365.714h713.143v-365.714zM155.429 338.286h676.571v329.143h-676.571v-329.143z" />
<glyph unicode="&#xe94f;" d="M850.286 246.857h-713.143v91.429h713.143v-91.429zM155.429 265.143h676.571v54.857h-676.571v-54.857z" />
<glyph unicode="&#xe950;" d="M1024 448c0-282.77-229.23-512-512-512s-512 229.23-512 512c0 282.77 229.23 512 512 512s512-229.23 512-512z" />
<glyph unicode="&#xe951;" d="M402.286 480.914c0-27.267-22.104-49.371-49.371-49.371s-49.371 22.104-49.371 49.371c0 27.267 22.104 49.371 49.371 49.371s49.371-22.104 49.371-49.371z" />
<glyph unicode="&#xe952;" d="M181.029 649.143h694.857v-420.571h-694.857v420.571z" />
<glyph unicode="&#xe953;" d="M885.029 219.429h-713.143v438.857h713.143v-438.857zM190.171 237.714h676.571v402.286h-676.571v-402.286z" />
<glyph unicode="&#xe954;" d="M786.286 522.971h-221.257c-5.486 0-9.143 3.657-9.143 9.143s3.657 9.143 9.143 9.143h221.257c5.486 0 9.143-3.657 9.143-9.143s-3.657-9.143-9.143-9.143z" />
<glyph unicode="&#xe955;" d="M786.286 431.543h-221.257c-5.486 0-9.143 3.657-9.143 9.143s3.657 9.143 9.143 9.143h221.257c5.486 0 9.143-3.657 9.143-9.143s-3.657-9.143-9.143-9.143z" />
<glyph unicode="&#xe956;" d="M786.286 340.114h-221.257c-5.486 0-9.143 3.657-9.143 9.143s3.657 9.143 9.143 9.143h221.257c5.486 0 9.143-3.657 9.143-9.143s-3.657-9.143-9.143-9.143z" />
<glyph unicode="&#xe957;" d="M521.143 435.2c3.657 3.657 1.829 9.143-1.829 12.8l-29.257 20.114-3.657 36.571c0 5.486-5.486 9.143-9.143 9.143l-36.571-3.657-25.6 25.6c-3.657 3.657-9.143 3.657-12.8 0l-25.6-25.6-36.571 3.657c-5.486 0-9.143-3.657-9.143-9.143l-3.657-36.571-29.257-20.114c-3.657-3.657-5.486-9.143-1.829-12.8l20.114-29.257c0 0 0 0 0 0l-9.143-34.743c-1.829-5.486 1.829-9.143 7.314-10.971l34.743-9.143 14.629-32.914c1.829-3.657 7.314-7.314 12.8-3.657l32.914 14.629c0 0 0 0 0 0s0 0 0 0l32.914-14.629c3.657-1.829 9.143 0 12.8 3.657l14.629 32.914 34.743 9.143c5.486 1.829 7.314 5.486 7.314 10.971l-9.143 34.743c0 0 0 0 0 0l18.286 29.257z" />
<glyph unicode="&#xe958;" d="M1024 448c0-282.77-229.23-512-512-512s-512 229.23-512 512c0 282.77 229.23 512 512 512s512-229.23 512-512z" />
<glyph unicode="&#xe959;" d="M310.857 713.143h402.286v-457.143h-402.286v457.143z" />
<glyph unicode="&#xe95a;" d="M722.286 246.857h-420.571v475.429h420.571v-475.429zM320 265.143h384v438.857h-384v-438.857z" />
<glyph unicode="&#xe95b;" d="M777.143 118.857h-530.286v658.286h530.286v-658.286zM265.143 137.143h493.714v621.714h-493.714v-621.714z" />
<glyph unicode="&#xe95c;" d="M541.257 177.371h-56.686c-5.486 0-9.143 3.657-9.143 9.143s3.657 9.143 9.143 9.143h56.686c5.486 0 9.143-3.657 9.143-9.143s-5.486-9.143-9.143-9.143z" />
<glyph unicode="&#xe95d;" d="M453.486 416.914c-5.486 0-10.971 1.829-16.457 3.657-34.743 20.114-12.8 107.886-7.314 126.171 1.829 7.314 7.314 25.6 14.629 43.886-1.829 0-5.486 0-7.314 0-23.771-3.657-54.857-56.686-49.371-137.143 0-5.486-3.657-9.143-9.143-9.143s-9.143 3.657-9.143 9.143c-7.314 89.6 27.429 151.771 64 155.429 5.486 0 10.971 0 16.457-1.829 10.971 20.114 23.771 36.571 38.4 36.571 0 0 0 0 0 0 18.286 0 31.086-23.771 42.057-43.886 0-1.829 1.829-1.829 1.829-3.657 0 3.657 0 7.314-1.829 9.143-1.829 25.6-5.486 47.543 9.143 53.029 10.971 5.486 25.6-1.829 62.171-54.857 3.657-3.657 1.829-9.143-1.829-12.8s-9.143-1.829-12.8 1.829c-23.771 34.743-34.743 43.886-40.229 45.714-1.829-7.314 0-23.771 1.829-32.914 1.829-23.771 3.657-38.4-7.314-43.886-10.971-3.657-18.286 9.143-27.429 25.6-5.486 10.971-18.286 32.914-25.6 32.914 0 0 0 0 0 0-5.486 0-12.8-9.143-21.943-25.6 10.971-7.314 23.771-16.457 32.914-29.257 20.114-25.6 34.743-64 21.943-98.743-9.143-21.943-31.086-43.886-54.857-51.2-1.829 3.657-9.143 1.829-12.8 1.829zM460.8 585.143c-5.486-10.971-9.143-25.6-14.629-42.057-14.629-56.686-12.8-98.743 0-106.057 3.657-1.829 9.143-1.829 18.286 0 16.457 5.486 34.743 20.114 43.886 40.229 10.971 27.429-1.829 60.343-18.286 80.457-10.971 12.8-20.114 21.943-29.257 27.429z" />
<glyph unicode="&#xe95e;" d="M405.943 292.571c-1.829 0-3.657 0-5.486 1.829-3.657 3.657-3.657 9.143 0 12.8 20.114 20.114 188.343 201.143 230.4 210.286 5.486 1.829 9.143-1.829 10.971-7.314s-1.829-9.143-7.314-10.971c-25.6-5.486-149.943-128-219.429-204.8-3.657 0-7.314-1.829-9.143-1.829z" />
<glyph unicode="&#xe95f;" d="M672.914 528.457c0-6.059-4.912-10.971-10.971-10.971s-10.971 4.912-10.971 10.971c0 6.059 4.912 10.971 10.971 10.971s10.971-4.912 10.971-10.971z" />
<glyph unicode="&#xe960;" d="M548.571 665.6h-58.514c-5.486 0-9.143 3.657-9.143 9.143s3.657 9.143 9.143 9.143h58.514c5.486 0 9.143-3.657 9.143-9.143s-5.486-9.143-9.143-9.143z" />
<glyph unicode="&#xe961;" d="M237.714 621.714h548.571v-438.857h-475.429c-40.229 0-73.143 32.914-73.143 73.143v365.714z" />
<glyph unicode="&#xe962;" d="M1024 448c0-282.77-229.23-512-512-512s-512 229.23-512 512c0 282.77 229.23 512 512 512s512-229.23 512-512z" />
<glyph unicode="&#xe963;" d="M634.514 486.4c-5.486 0-12.8 0-16.457 3.657v0l-18.286 14.629c-16.457 12.8-67.657 20.114-76.8 18.286l-149.943-20.114-25.6 67.657 162.743 23.771c47.543 5.486 93.257-5.486 129.829-32.914l18.286-14.629c9.143-5.486 12.8-16.457 14.629-23.771 1.829-10.971 0-21.943-7.314-29.257 0 0-3.657-5.486-23.771-7.314-1.829 0-5.486 0-7.314 0zM627.2 504.686c5.486-1.829 21.943 0 25.6 1.829 3.657 3.657 3.657 9.143 3.657 10.971-1.829 5.486-3.657 10.971-7.314 12.8l-18.286 14.629c-32.914 23.771-73.143 34.743-115.2 29.257l-140.8-20.114 12.8-32.914 133.486 18.286c7.314 3.657 69.486-5.486 91.429-21.943l14.629-12.8z" />
<glyph unicode="&#xe964;" d="M687.543 190.171l-85.943 182.857 76.8 7.314 78.629-166.4-21.943-10.971c-1.829 0-1.829-1.829-3.657-1.829-7.314-3.657-14.629-5.486-25.6-7.314l-18.286-3.657zM630.857 358.4l67.657-146.286 3.657 1.829c9.143 1.829 16.457 3.657 21.943 7.314l3.657 1.829c1.829 0 1.829 1.829 3.657 1.829h1.829l-64 137.143-38.4-3.657z" />
<glyph unicode="&#xe965;" d="M433.371 192l-16.457 3.657c-7.314 1.829-14.629 3.657-21.943 7.314-1.829 0-1.829 0-3.657 1.829-1.829 0-5.486 1.829-7.314 1.829l-20.114 5.486 69.486 151.771 14.629-3.657c7.314-1.829 18.286-1.829 27.429-1.829l34.743 3.657-76.8-170.057zM389.486 224.914v0c3.657-1.829 5.486-1.829 5.486-1.829 1.829 0 5.486-1.829 7.314-1.829 7.314-3.657 12.8-5.486 18.286-7.314h1.829l58.514 129.829h-3.657c-10.971 0-21.943 0-31.086 1.829v0l-56.686-120.686z" />
<glyph unicode="&#xe966;" d="M263.314 766.171c10.971 3.657 20.114 0 23.771-1.829 5.486-1.829 10.971-7.314 14.629-16.457 0-5.486 111.543-310.857 115.2-316.343 9.143-12.8 10.971-14.629 23.771-21.943 14.629-9.143 34.743-5.486 34.743-5.486s206.629 18.286 210.286 18.286c14.629 1.829 43.886-3.657 45.714-3.657 12.8-3.657 32.914-10.971 51.2-21.943 5.486-3.657 29.257-21.943 31.086-23.771 5.486-5.486 7.314-9.143 7.314-14.629 3.657-10.971-1.829-21.943-1.829-21.943-1.829-5.486-7.314-9.143-10.971-10.971-7.314-3.657-14.629-5.486-23.771-3.657-5.486 1.829-12.8 5.486-18.286 10.971-9.143 7.314-12.8 10.971-21.943 16.457-3.657 1.829-18.286 10.971-32.914 12.8-10.971 1.829-16.457 1.829-29.257 1.829-54.857-5.486-213.943-20.114-221.257-18.286-20.114 0-32.914 5.486-36.571 7.314-10.971 3.657-21.943 10.971-31.086 18.286-14.629 10.971-25.6 25.6-32.914 43.886-1.829 3.657-113.371 312.686-113.371 316.343-1.829 5.486-1.829 14.629 1.829 21.943 3.657 5.486 9.143 9.143 14.629 12.8z" />
<glyph unicode="&#xe967;" d="M791.771 312.686c-1.829 0-5.486 0-9.143 0-5.486 1.829-14.629 5.486-23.771 12.8l-5.486 3.657c-5.486 3.657-9.143 7.314-14.629 10.971l-1.829 1.829c-5.486 3.657-16.457 9.143-27.429 10.971s-14.629 1.829-27.429 1.829c-1.829 0-195.657-18.286-221.257-18.286v0c-21.943 0-36.571 5.486-40.229 9.143-9.143 3.657-20.114 9.143-32.914 20.114-16.457 10.971-27.429 27.429-36.571 47.543 0 1.829-104.229 285.257-113.371 316.343v0c-1.829 7.314-1.829 18.286 1.829 29.257 5.486 7.314 10.971 12.8 18.286 16.457l1.829 1.829c12.8 5.486 25.6 0 31.086-1.829 7.314-1.829 14.629-10.971 18.286-21.943v-3.657c3.657-10.971 107.886-298.057 113.371-312.686 7.314-10.971 9.143-10.971 20.114-18.286s29.257-3.657 29.257-3.657c62.171 5.486 208.457 18.286 212.114 18.286 10.971 1.829 27.429 0 42.057-3.657h5.486c9.143-1.829 31.086-9.143 53.029-23.771 5.486-3.657 29.257-21.943 32.914-25.6 5.486-5.486 9.143-10.971 9.143-20.114 3.657-12.8-1.829-25.6-3.657-27.429-1.829-7.314-10.971-12.8-14.629-14.629 0-3.657-7.314-5.486-16.457-5.486zM685.714 373.029c10.971 0 16.457 0 25.6-1.829 14.629-1.829 27.429-9.143 32.914-12.8l1.829-1.829c7.314-5.486 12.8-9.143 18.286-12.8l5.486-5.486c5.486-5.486 12.8-9.143 14.629-9.143 5.486 0 10.971 0 16.457 3.657 3.657 1.829 5.486 3.657 5.486 5.486s3.657 9.143 1.829 16.457v3.657c0 1.829 0 3.657-5.486 7.314-1.829 1.829-23.771 18.286-29.257 21.943-20.114 10.971-40.229 18.286-47.543 20.114-1.829 0-1.829 0-3.657 0-7.314 1.829-29.257 3.657-38.4 3.657-7.314 0-153.6-12.8-210.286-18.286 0 0-23.771-3.657-40.229 7.314-14.629 7.314-16.457 10.971-25.6 23.771-1.829 1.829-106.057 283.429-117.029 318.171v0c-3.657 7.314-7.314 10.971-9.143 10.971-3.657 1.829-9.143 3.657-16.457 1.829-3.657-3.657-9.143-5.486-10.971-9.143s-1.829-10.971 0-14.629v-1.829c5.486-18.286 106.057-299.886 113.371-314.514 7.314-16.457 16.457-31.086 29.257-40.229 10.971-9.143 20.114-14.629 29.257-16.457 3.657-1.829 14.629-7.314 32.914-7.314h1.829c10.971-1.829 149.943 10.971 217.6 18.286 5.486 3.657 5.486 3.657 7.314 3.657z" />
<glyph unicode="&#xe968;" d="M257.829 290.743c7.314 7.314 18.286 9.143 27.429 7.314 7.314-1.829 14.629-7.314 18.286-14.629 5.486-9.143 14.629-16.457 23.771-23.771 20.114-16.457 45.714-29.257 78.629-40.229 31.086-10.971 64-16.457 96.914-20.114 43.886-3.657 82.286-3.657 131.657 1.829 34.743 3.657 67.657 12.8 96.914 23.771 36.571 14.629 65.829 31.086 87.771 56.686 3.657 5.486 7.314 10.971 10.971 12.8 12.8 9.143 27.429 7.314 38.4-1.829 9.143-7.314 12.8-18.286 9.143-31.086-3.657-14.629-32.914-45.714-67.657-67.657-43.886-25.6-100.571-43.886-153.6-51.2s-100.571-9.143-148.114-3.657c-43.886 3.657-84.114 10.971-122.514 25.6-45.714 14.629-85.943 38.4-115.2 69.486-10.971 12.8-20.114 21.943-20.114 34.743-3.657 7.314 0 14.629 7.314 21.943z" />
<glyph unicode="&#xe969;" d="M565.029 126.171c-20.114 0-38.4 1.829-56.686 3.657-49.371 3.657-87.771 12.8-124.343 25.6-47.543 14.629-89.6 40.229-118.857 71.314l-3.657 3.657c-9.143 10.971-18.286 21.943-18.286 34.743-3.657 9.143 0 20.114 9.143 31.086 9.143 9.143 21.943 12.8 36.571 9.143 10.971-1.829 20.114-10.971 23.771-20.114 3.657-7.314 12.8-14.629 21.943-20.114 18.286-14.629 43.886-27.429 74.971-38.4 25.6-9.143 54.857-14.629 95.086-20.114 45.714-3.657 84.114-3.657 129.829 1.829 31.086 3.657 62.171 10.971 95.086 23.771 40.229 16.457 65.829 32.914 84.114 54.857 3.657 5.486 7.314 12.8 14.629 14.629 14.629 10.971 32.914 9.143 47.543-3.657 12.8-9.143 16.457-23.771 12.8-40.229-3.657-18.286-36.571-51.2-71.314-73.143-43.886-25.6-100.571-45.714-157.257-53.029-36.571-1.829-65.829-5.486-95.086-5.486zM277.943 288.914c-5.486 0-10.971-1.829-14.629-5.486v0c-7.314-7.314-5.486-10.971-5.486-10.971l1.829-1.829v-1.829c0-7.314 5.486-14.629 14.629-25.6l3.657-3.657c27.429-29.257 65.829-53.029 111.543-65.829 34.743-12.8 73.143-21.943 120.686-25.6 43.886-5.486 91.429-3.657 146.286 3.657 53.029 7.314 107.886 25.6 149.943 49.371 34.743 21.943 60.343 51.2 64 62.171 1.829 9.143 0 16.457-5.486 21.943-9.143 7.314-18.286 7.314-27.429 1.829-3.657-1.829-7.314-7.314-9.143-10.971-21.943-25.6-49.371-42.057-91.429-60.343-34.743-12.8-67.657-21.943-98.743-23.771-47.543-5.486-85.943-5.486-133.486-1.829-42.057 5.486-71.314 10.971-98.743 20.114-34.743 10.971-60.343 25.6-80.457 42.057-9.143 7.314-20.114 16.457-25.6 25.6-1.829 5.486-7.314 9.143-12.8 10.971-5.486 0-7.314 0-9.143 0z" />
<glyph unicode="&#xe96a;" d="M259.657 241.371h71.314c1.829 0 3.657-1.829 3.657-3.657v-36.571c0-16.457-34.743-29.257-73.143-29.257s-82.286 12.8-82.286 29.257v36.571c0 1.829 1.829 3.657 3.657 3.657h76.8z" />
<glyph unicode="&#xe96b;" d="M259.657 166.4c-36.571 0-89.6 10.971-89.6 36.571v36.571c0 5.486 3.657 10.971 10.971 10.971h149.943c5.486 0 10.971-3.657 10.971-10.971v-36.571c0-23.771-42.057-36.571-82.286-36.571zM186.514 234.057v-31.086c0-7.314 31.086-21.943 74.971-21.943 40.229 0 65.829 12.8 65.829 21.943v31.086h-140.8z" />
<glyph unicode="&#xe96c;" d="M259.657 279.771h71.314c1.829 0 3.657-1.829 3.657-3.657v-36.571c0-16.457-34.743-29.257-73.143-29.257s-82.286 12.8-82.286 29.257v36.571c0 1.829 1.829 3.657 3.657 3.657h76.8z" />
<glyph unicode="&#xe96d;" d="M259.657 204.8c-36.571 0-89.6 10.971-89.6 36.571v36.571c0 5.486 3.657 10.971 10.971 10.971h149.943c5.486 0 10.971-3.657 10.971-10.971v-36.571c0-23.771-42.057-36.571-82.286-36.571zM186.514 272.457v-31.086c0-7.314 31.086-21.943 74.971-21.943 40.229 0 65.829 12.8 65.829 21.943v31.086h-140.8z" />
<glyph unicode="&#xe96e;" d="M259.657 320h71.314c1.829 0 3.657-1.829 3.657-3.657v-36.571c0-16.457-34.743-29.257-73.143-29.257s-82.286 12.8-82.286 29.257v36.571c0 1.829 1.829 3.657 3.657 3.657h76.8z" />
<glyph unicode="&#xe96f;" d="M259.657 243.2c-36.571 0-89.6 10.971-89.6 36.571v36.571c0 5.486 3.657 10.971 10.971 10.971h149.943c5.486 0 10.971-3.657 10.971-10.971v-36.571c0-23.771-42.057-36.571-82.286-36.571zM186.514 312.686v-31.086c0-7.314 31.086-21.943 74.971-21.943 40.229 0 65.829 12.8 65.829 21.943v31.086h-140.8z" />
<glyph unicode="&#xe970;" d="M259.657 358.4h71.314c1.829 0 3.657-1.829 3.657-3.657v-36.571c0-16.457-34.743-29.257-73.143-29.257s-82.286 14.629-82.286 31.086v36.571c0 1.829 1.829 3.657 3.657 3.657h76.8z" />
<glyph unicode="&#xe971;" d="M259.657 283.429c-36.571 0-89.6 10.971-89.6 36.571v36.571c0 5.486 3.657 10.971 10.971 10.971h149.943c5.486 0 10.971-3.657 10.971-10.971v-36.571c0-25.6-42.057-36.571-82.286-36.571zM186.514 351.086v-31.086c0-7.314 31.086-21.943 74.971-21.943 40.229 0 65.829 12.8 65.829 21.943v31.086h-140.8z" />
<glyph unicode="&#xe972;" d="M334.629 358.4c0-16.158-35.203-29.257-78.629-29.257s-78.629 13.099-78.629 29.257c0 16.158 35.203 29.257 78.629 29.257s78.629-13.099 78.629-29.257z" />
<glyph unicode="&#xe973;" d="M256 321.829c-42.057 0-85.943 12.8-85.943 36.571 0 47.543 170.057 47.543 170.057 0 1.829-23.771-42.057-36.571-84.114-36.571zM256 380.343c-42.057 0-71.314-12.8-71.314-21.943s27.429-21.943 71.314-21.943 71.314 12.8 71.314 21.943-29.257 21.943-71.314 21.943z" />
<glyph unicode="&#xe974;" d="M338.286 173.714h71.314c1.829 0 3.657-1.829 3.657-3.657v-36.571c0-16.457-34.743-29.257-73.143-29.257s-84.114 12.8-84.114 31.086v36.571c0 1.829 1.829 3.657 3.657 3.657h78.629z" />
<glyph unicode="&#xe975;" d="M338.286 98.743c-36.571 0-89.6 10.971-89.6 36.571v36.571c0 5.486 3.657 10.971 10.971 10.971h149.943c5.486 0 10.971-3.657 10.971-10.971v-36.571c-1.829-25.6-42.057-36.571-82.286-36.571zM263.314 166.4v-31.086c0-7.314 31.086-21.943 74.971-21.943 40.229 0 65.829 12.8 65.829 21.943v31.086h-140.8z" />
<glyph unicode="&#xe976;" d="M338.286 212.114h71.314c1.829 0 3.657-1.829 3.657-3.657v-36.571c0-16.457-34.743-29.257-73.143-29.257s-84.114 14.629-84.114 31.086v36.571c0 1.829 1.829 3.657 3.657 3.657h78.629z" />
<glyph unicode="&#xe977;" d="M338.286 137.143c-36.571 0-89.6 10.971-89.6 36.571v36.571c0 5.486 3.657 10.971 10.971 10.971h149.943c5.486 0 10.971-3.657 10.971-10.971v-36.571c-1.829-23.771-42.057-36.571-82.286-36.571zM263.314 204.8v-31.086c0-7.314 31.086-21.943 74.971-21.943 40.229 0 65.829 12.8 65.829 21.943v31.086h-140.8z" />
<glyph unicode="&#xe978;" d="M338.286 250.514h71.314c1.829 0 3.657-1.829 3.657-3.657v-36.571c0-16.457-34.743-29.257-73.143-29.257s-84.114 14.629-84.114 31.086v36.571c0 1.829 1.829 3.657 3.657 3.657h78.629z" />
<glyph unicode="&#xe979;" d="M338.286 175.543c-36.571 0-89.6 10.971-89.6 36.571v36.571c0 5.486 3.657 10.971 10.971 10.971h149.943c5.486 0 10.971-3.657 10.971-10.971v-36.571c-1.829-23.771-42.057-36.571-82.286-36.571zM263.314 243.2v-31.086c0-7.314 31.086-21.943 74.971-21.943 40.229 0 65.829 12.8 65.829 21.943v31.086h-140.8z" />
<glyph unicode="&#xe97a;" d="M338.286 290.743h71.314c1.829 0 3.657-1.829 3.657-3.657v-36.571c0-16.457-34.743-29.257-73.143-29.257s-84.114 12.8-84.114 29.257v36.571c0 1.829 1.829 3.657 3.657 3.657h78.629z" />
<glyph unicode="&#xe97b;" d="M338.286 213.943c-36.571 0-89.6 10.971-89.6 36.571v36.571c0 5.486 3.657 10.971 10.971 10.971h149.943c5.486 0 10.971-3.657 10.971-10.971v-36.571c-1.829-23.771-42.057-36.571-82.286-36.571zM263.314 283.429v-31.086c0-7.314 31.086-21.943 74.971-21.943 40.229 0 65.829 12.8 65.829 21.943v31.086h-140.8z" />
<glyph unicode="&#xe97c;" d="M413.257 290.743c0-16.158-35.203-29.257-78.629-29.257s-78.629 13.099-78.629 29.257c0 16.158 35.203 29.257 78.629 29.257s78.629-13.099 78.629-29.257z" />
<glyph unicode="&#xe97d;" d="M334.629 254.171c-42.057 0-85.943 12.8-85.943 36.571 0 47.543 170.057 47.543 170.057 0 0-23.771-42.057-36.571-84.114-36.571zM334.629 312.686c-42.057 0-71.314-12.8-71.314-21.943s27.429-21.943 71.314-21.943 71.314 12.8 71.314 21.943-29.257 21.943-71.314 21.943z" />
<glyph unicode="&#xe97e;" d="M795.429 173.714h-484.571c-45.714 0-82.286 36.571-82.286 82.286v374.857h566.857v-457.143zM246.857 612.571v-356.571c0-34.743 29.257-64 64-64h466.286v420.571h-530.286z" />
<glyph unicode="&#xe97f;" d="M310.857 713.143h475.429v-135.314c0-5.486-5.486-10.971-10.971-10.971h-464.457c-40.229 0-73.143 32.914-73.143 73.143v0c0 40.229 32.914 73.143 73.143 73.143z" />
<glyph unicode="&#xe980;" d="M775.314 557.714h-464.457c-45.714 0-82.286 36.571-82.286 82.286s36.571 82.286 82.286 82.286h484.571v-144.457c0-10.971-9.143-20.114-20.114-20.114zM310.857 704c-34.743 0-64-29.257-64-64s29.257-64 64-64h464.457c1.829 0 1.829 1.829 1.829 1.829v126.171h-466.286z" />
<glyph unicode="&#xe981;" d="M237.714 649.143h548.571v-18.286h-548.571v18.286z" />
<glyph unicode="&#xe982;" d="M649.143 446.171h137.143v-91.429h-137.143c-25.6 0-45.714 20.114-45.714 45.714v0c0 23.771 20.114 45.714 45.714 45.714z" />
<glyph unicode="&#xe983;" d="M795.429 345.6h-146.286c-31.086 0-54.857 23.771-54.857 54.857s23.771 54.857 54.857 54.857h146.286v-109.714zM649.143 437.029c-20.114 0-36.571-16.457-36.571-36.571s16.457-36.571 36.571-36.571h128v73.143c0 0-128 0-128 0z" />
<glyph unicode="&#xe984;" d="M682.057 400.457c0-12.119-9.824-21.943-21.943-21.943s-21.943 9.824-21.943 21.943c0 12.119 9.824 21.943 21.943 21.943s21.943-9.824 21.943-21.943z" />
<glyph unicode="&#xe985;" d="M660.114 369.371c-16.457 0-31.086 12.8-31.086 31.086s12.8 31.086 31.086 31.086c16.457 0 31.086-12.8 31.086-31.086s-14.629-31.086-31.086-31.086zM660.114 411.429c-7.314 0-12.8-5.486-12.8-12.8s5.486-12.8 12.8-12.8 12.8 5.486 12.8 12.8-7.314 12.8-12.8 12.8z" />
<glyph unicode="&#xe986;" d="M206.629 778.971h493.714v-603.429h-493.714v603.429z" />
<glyph unicode="&#xe987;" d="M709.486 166.4h-512v621.714h512v-621.714zM215.771 184.686h475.429v585.143h-475.429v-585.143z" />
<glyph unicode="&#xe988;" d="M257.829 665.6l45.714-36.571 95.086 89.6z" />
<glyph unicode="&#xe989;" d="M303.543 616.229l-51.2 42.057c-3.657 3.657-5.486 9.143-1.829 12.8s9.143 5.486 12.8 1.829l40.229-31.086 89.6 84.114c3.657 3.657 9.143 3.657 12.8 0s3.657-9.143 0-12.8l-102.4-96.914z" />
<glyph unicode="&#xe98a;" d="M652.8 702.171h-188.343c-5.486 0-9.143 3.657-9.143 9.143s3.657 9.143 9.143 9.143h188.343c5.486 0 9.143-3.657 9.143-9.143s-3.657-9.143-9.143-9.143z" />
<glyph unicode="&#xe98b;" horiz-adv-x="1022" d="M1022.175 448.913c0-282.266-228.822-511.087-511.087-511.087s-511.087 228.822-511.087 511.087c0 282.266 228.822 511.087 511.087 511.087s511.087-228.822 511.087-511.087z" />
<glyph unicode="&#xe98c;" horiz-adv-x="1022" d="M892.578 301.062h-585.925v293.875h585.925v-293.875zM324.906 319.316h549.419v257.369h-549.419v-257.369z" />
<glyph unicode="&#xe98d;" horiz-adv-x="1022" d="M224.513 677.077h567.672v-275.622h-567.672v275.622z" />
<glyph unicode="&#xe98e;" horiz-adv-x="1022" d="M801.312 392.328h-585.925v293.875h585.925v-293.875zM233.64 410.581h549.419v257.369h-549.419v-257.369z" />
<glyph unicode="&#xe98f;" horiz-adv-x="1022" d="M507.437 558.431c-9.127 0-20.078-9.127-20.078-20.078 0-9.127 9.127-20.078 20.078-20.078 9.127 0 20.078 9.127 20.078 20.078 0 9.127-10.952 20.078-20.078 20.078z" />
<glyph unicode="&#xe990;" horiz-adv-x="1022" d="M697.269 468.991h-379.665l-1.825 7.301c-1.825 7.301-10.952 16.428-20.078 20.078l-7.301 1.825v82.139l7.301 1.825c9.127 1.825 18.253 7.301 20.078 20.078l1.825 7.301h377.84l1.825-7.301c1.825-9.127 7.301-18.253 20.078-20.078l7.301-1.825v-82.139l-7.301-1.825c-9.127-1.825-18.253-7.301-20.078-20.078v-7.301zM332.207 487.244h348.635c3.651 10.952 12.777 20.078 25.554 25.554v52.934c-10.952 3.651-20.078 12.777-25.554 25.554h-346.809c-3.651-10.952-12.777-20.078-25.554-25.554v-54.759c10.952-3.651 20.078-14.602 23.729-23.729z" />
<glyph unicode="&#xe991;" horiz-adv-x="1022" d="M438.075 322.966c0-78.631-63.743-142.374-142.374-142.374s-142.374 63.743-142.374 142.374c0 78.631 63.743 142.374 142.374 142.374s142.374-63.743 142.374-142.374z" />
<glyph unicode="&#xe992;" horiz-adv-x="1022" d="M281.098 189.718c-83.964 0-151.501 67.537-151.501 151.501s67.537 151.501 151.501 151.501 151.501-67.537 151.501-151.501c0-83.964-67.537-151.501-151.501-151.501zM281.098 474.467c-73.012 0-133.248-60.235-133.248-133.248s60.235-133.248 133.248-133.248c73.012 0 133.248 60.235 133.248 133.248s-58.41 133.248-133.248 133.248z" />
<glyph unicode="&#xe993;" horiz-adv-x="1022" d="M202.61 361.298c0 10.952 3.651 18.253 9.127 21.904s12.777 7.301 23.729 7.301c9.127 0 18.253-1.825 23.729-7.301s9.127-12.777 9.127-21.904c0-10.952-3.651-18.253-9.127-21.904-5.476-5.476-12.777-7.301-23.729-7.301-9.127 0-18.253 1.825-23.729 7.301s-9.127 12.777-9.127 21.904zM224.513 361.298c0-7.301 1.825-12.777 3.651-14.602s3.651-3.651 7.301-3.651c3.651 0 5.476 1.825 7.301 3.651s3.651 7.301 3.651 14.602-1.825 12.777-3.651 14.602c-1.825 1.825-3.651 3.651-7.301 3.651s-5.476-1.825-7.301-3.651c-3.651-1.825-3.651-7.301-3.651-14.602zM255.544 271.857h-20.078l76.663 118.645h20.078l-76.663-118.645zM299.351 302.888c0 10.952 3.651 18.253 9.127 21.904s12.777 7.301 23.729 7.301c9.127 0 18.253-1.825 23.729-7.301s9.127-12.777 9.127-21.904c0-10.952-3.651-18.253-9.127-21.904s-12.777-7.301-23.729-7.301c-9.127 0-18.253 1.825-23.729 7.301s-9.127 10.952-9.127 21.904zM321.255 302.888c0-7.301 1.825-12.777 3.651-14.602 1.825-3.651 3.651-3.651 5.476-3.651 3.651 0 5.476 1.825 7.301 3.651s3.651 7.301 3.651 14.602-1.825 12.777-3.651 14.602c-1.825 1.825-3.651 3.651-7.301 3.651s-5.476-1.825-7.301-3.651c-1.825-3.651-1.825-7.301-1.825-14.602z" />
<glyph unicode="&#xe994;" d="M616.229 629.029h-151.771c-5.486 0-9.143 3.657-9.143 9.143s3.657 9.143 9.143 9.143h151.771c5.486 0 9.143-3.657 9.143-9.143s-3.657-9.143-9.143-9.143z" />
<glyph unicode="&#xe995;" d="M257.829 464.457l45.714-36.571 95.086 89.6z" />
<glyph unicode="&#xe996;" d="M303.543 415.086l-51.2 42.057c-3.657 3.657-5.486 9.143-1.829 12.8s9.143 5.486 12.8 1.829l40.229-31.086 89.6 84.114c3.657 3.657 9.143 3.657 12.8 0s3.657-9.143 0-12.8l-102.4-96.914z" />
<glyph unicode="&#xe997;" d="M652.8 501.029h-188.343c-5.486 0-9.143 3.657-9.143 9.143s3.657 9.143 9.143 9.143h188.343c5.486 0 9.143-3.657 9.143-9.143s-3.657-9.143-9.143-9.143z" />
<glyph unicode="&#xe998;" horiz-adv-x="1075" d="M998.7 652.7h-307.2v-614.4h307.2v614.4zM896.3 191.9h-102.5v102.4h102.4v-102.4zM896.3 396.7h-102.5v102.4h102.4v-102.4z" />
<glyph unicode="&#xe999;" d="M1024 448c0-282.77-229.23-512-512-512s-512 229.23-512 512c0 282.77 229.23 512 512 512s512-229.23 512-512z" />
<glyph unicode="&#xe99a;" d="M746.057 683.886h128v-493.714h-128v493.714z" />
<glyph unicode="&#xe99b;" d="M883.2 179.2h-146.286v512h146.286v-512zM755.2 197.486h109.714v475.429h-109.714v-475.429z" />
<glyph unicode="&#xe99c;" d="M563.2 592.457h128v-402.286h-128v402.286z" />
<glyph unicode="&#xe99d;" d="M700.343 179.2h-146.286v420.571h146.286v-420.571zM572.343 197.486h109.714v384h-109.714v-384z" />
<glyph unicode="&#xe99e;" d="M380.343 702.171h128v-512h-128v512z" />
<glyph unicode="&#xe99f;" d="M517.486 179.2h-146.286v530.286h146.286v-530.286zM389.486 197.486h109.714v493.714h-109.714v-493.714z" />
<glyph unicode="&#xe9a0;" d="M197.486 501.029h128v-310.857h-128v310.857z" />
<glyph unicode="&#xe9a1;" d="M334.629 179.2h-146.286v329.143h146.286v-329.143zM206.629 197.486h109.714v292.571h-109.714v-292.571z" />
<glyph unicode="&#xe9a2;" d="M444.343 210.286c0-78.772-63.857-142.629-142.629-142.629s-142.629 63.857-142.629 142.629c0 78.772 63.857 142.629 142.629 142.629s142.629-63.857 142.629-142.629z" />
<glyph unicode="&#xe9a3;" d="M287.086 76.8c-84.114 0-151.771 67.657-151.771 151.771s67.657 151.771 151.771 151.771 151.771-67.657 151.771-151.771-67.657-151.771-151.771-151.771zM287.086 362.057c-73.143 0-133.486-60.343-133.486-133.486s60.343-133.486 133.486-133.486c73.143 0 133.486 60.343 133.486 133.486s-60.343 133.486-133.486 133.486z" />
<glyph unicode="&#xe9a4;" d="M360.229 232.229h-146.286c-5.486 0-9.143 3.657-9.143 9.143s3.657 9.143 9.143 9.143h146.286c5.486 0 9.143-3.657 9.143-9.143s-3.657-9.143-9.143-9.143z" />
<glyph unicode="&#xe9a5;" d="M360.229 232.229c-3.657 0-5.486 1.829-7.314 3.657l-34.743 49.371c-3.657 3.657-1.829 9.143 1.829 12.8s9.143 1.829 12.8-1.829l34.743-49.371c3.657-3.657 1.829-9.143-1.829-12.8-1.829-1.829-3.657-1.829-5.486-1.829z" />
<glyph unicode="&#xe9a6;" d="M360.229 190.171h-146.286c-5.486 0-9.143 3.657-9.143 9.143s3.657 9.143 9.143 9.143h146.286c5.486 0 9.143-3.657 9.143-9.143s-3.657-9.143-9.143-9.143z" />
<glyph unicode="&#xe9a7;" d="M248.686 140.8c-3.657 0-5.486 1.829-7.314 3.657l-34.743 49.371c-3.657 3.657-1.829 9.143 1.829 12.8s9.143 1.829 12.8-1.829l34.743-49.371c3.657-3.657 1.829-9.143-1.829-12.8-1.829-1.829-3.657-1.829-5.486-1.829z" />
<glyph unicode="&#xe9a8;" horiz-adv-x="969" d="M464.7 448.2v0 484.1c-258.4-10.4-464.7-223.2-464.7-484.1 0-267.6 216.9-484.5 484.5-484.5 155.6 0 294 73.3 382.7 187.3l-402.5 297.2z" />
<glyph unicode="&#xe9a9;" horiz-adv-x="969" d="M504.3 932.3v-464.1l385.9-284.9c49.8 76.2 78.8 167.1 78.8 264.9 0 260.9-206.3 473.7-464.7 484.1z" />
<glyph unicode="&#xe9aa;" horiz-adv-x="1019" d="M1017.5 277.6l-2.1 11.5-2.9 12.3-4.3 11.5-5.1 11.5-5.8 11.5-7.2 10.9-7.9 10.8-9.4 10.1-10 10-10.9 9.4-12.2 8.7-13.7 7.9-11.5 6.5-12.3 5-12.2 4.3-13 4.4-13 2.8-27.4 4.4-13.6 1.4-14.5 1.4-14.4 0.8h-43.2l-100.2-5.1h-13.7l-13.7-0.7h-12.9l-26 1.4-12.2 0.8-11.6 1.4-11.5 2.2-10.8 2.1-10.1 2.9-9.3 3.6-9.4 5.1 4.3-9.4 7.2-20.2 2.2-10.8 2.1-11.5 1.5-11.6 0.7-12.2 0.7-13v-39.6l-0.7-13.7-0.7-28.1-2.2-28.8v-14.4l-1.4-15.2v-58.3l0.7-14.5 0.7-13.7 2.2-14.4 1.4-13.7 2.2-12.9 3.6-13.7 3.6-13 4.3-12.2 5.1-12.3 6.4-11.5 8-13.7 8.6-12.3 9.4-11.5 10.1-10.1 10.1-8.6 10.8-8 10.8-7.2 11.5-6.4 11.5-5.1 11.6-3.6 11.5-2.9 12.3-2.9 23-1.4 11.5 0.7 11.6 1.5 21.6 4.3 20.2 8.6 8.6 5.1 9.4 6.5 7.9 6.4 7.2 7.3 6.5 8.6 6.5 7.9 4.3 10.1 4.3 9.4 2.9 10.8 2.2 11.5 0.7 11.6-0.7 12.2v17.3l2.1 10.8 1.5 2.9 0.7 3.6 1.4 2.9 1.5 3.6 1.4 2.9 2.2 2.1 1.4 2.9 2.2 2.2 2.2 2.8 2.1 2.2 2.2 1.5 2.9 2.1 11.5 5.8 3.6 1.4 2.9 0.7 7.2 1.5 4.3 0.7 3.6 0.7h8.7l4.3-0.7h12.2l11.6 0.7 11.5 2.2 10.1 2.9 10.1 3.6 9.3 5 8.7 5.8 15.8 14.4 6.5 7.9 5.8 8.7 5 9.3 5.1 10.1 3.6 10.1 2.9 10.8 2.1 10.8 1.5 11.6v23z" />
<glyph unicode="&#xe9ab;" horiz-adv-x="1019" d="M490.8 439.7l-10.1-2.9-10.8-2.1-11.6-2.2-11.5-1.4-24.5-1.5-13-0.7h-13.7l-12.9 0.7h-13.7l-100.9 5.1h-43.3l-14.4-0.8-14.4-1.4-13.7-1.4-27.4-4.4-12.9-2.8-13-4.4-12.2-4.3-12.3-5-11.5-6.5-13-8-12.3-8.6-11.5-9.4-10.1-10.1-8.6-10-8.7-10.9-6.4-10.8-6.5-11.5-5.1-11.5-3.6-11.6-3.6-12.2-2.1-11.5-1.5-12.3v-11.5l1.5-23.1 2.1-10.8 2.9-10.8 8.6-20.2 5.1-9.3 5.8-8.7 7.2-7.9 7.2-7.2 7.9-7.2 8.6-5.8 9.4-5 10.1-3.6 10.8-2.9 10.8-2.2 11.5-0.7h13l4.3 0.7h8l4.3-0.7 14.4-2.9 5.8-2.9 3.6-1.4 2.9-1.4 2.1-1.5 2.9-2.2 2.2-1.4 2.8-2.2 1.5-2.8 2.1-2.2 1.5-2.9 2.1-2.1 1.5-2.9 1.4-3.6 1.5-2.9 0.7-3.6 1.4-2.9 2.2-10.8v-29.5l0.7-11.6 1.5-11.5 2.8-10.8 4.4-9.4 5-10.1 5.8-7.9 6.5-8.6 7.2-7.3 17.3-12.9 9.3-5.1 9.4-4.3 10.8-4.3 10.1-2.2 10.8-2.1 11.5-1.5 11.6-0.7 11.5 0.7 12.2 0.7 23.1 5.8 12.3 3.6 10.8 5.1 11.5 6.4 10.8 7.2 10.8 8 10.1 8.6 10.1 10.1 9.4 11.5 8.6 12.3 7.9 13.7 6.5 11.5 5.1 12.3 4.3 12.2 3.6 13 3.6 13.7 2.2 12.9 2.1 13.7 1.5 14.4 1.4 13.7v14.5l0.7 14.4v14.4l-0.7 15.1v14.4l-0.7 15.2-2.2 43.2-1.4 28.1v13.7l-0.8 13.7v13l0.8 12.9v13l0.7 12.2 2.2 11.6 1.4 11.5 2.9 10.8 2.9 10.1 3.6 10.1 4.3 9.4-8.7-5.1z" />
<glyph unicode="&#xe9ac;" horiz-adv-x="1019" d="M528.2 456.3l10.1 2.9 10.8 2.1 11.5 2.2 11.6 1.4 12.2 0.8 13 1.4h25.9l13.7-0.7h13.7l100.2-5.1h43.2l14.4 0.8 14.5 1.4 13.6 1.4 27.4 4.4 13 2.8 13 4.4 12.2 4.3 12.3 5 11.5 5.8 13.7 8.6 12.2 8.7 10.9 9.4 10 10 9.4 10.1 7.9 10.8 7.2 10.9 5.8 11.5 5.1 11.5 4.3 11.5 2.9 12.3 2.1 11.5 1.5 12.3v23l-1.5 11.6-2.1 10.8-2.9 10.8-3.6 10.1-5.1 10.1-5 9.3-5.8 8.7-6.5 7.9-15.8 14.4-8.7 5.8-9.3 5-10.1 3.6-10.1 2.9-11.5 2.2-11.6 0.7h-12.2l-4.3-0.7h-8.7l-3.6 0.7-4.3 0.7-7.2 1.5-2.9 0.7-3.6 1.4-11.5 5.8-2.9 2.1-2.2 2.2-2.1 1.4-2.2 2.9-2.2 2.2-1.4 2.9-2.2 2.1-2.9 5.8-1.4 3.6-0.7 3.6-1.5 2.9-2.1 10.8v17.3l0.7 12.2-0.7 11.6-2.2 11.5-2.9 10.1-8.6 20.2-6.5 8.6-6.5 7.9-7.2 7.2-7.9 6.5-9.4 6.5-8.6 5.1-20.2 8.6-10.8 2.9-22.4 2.9-11.5 0.7-23-1.4-12.3-2.9-11.5-2.9-11.6-3.6-11.5-5.1-11.5-6.4-10.8-6.5-10.8-8.7-20.2-18.7-9.4-11.5-8.6-12.3-8-13.7-6.4-11.5-5.1-12.3-4.3-12.2-7.2-26-2.2-13.6-1.4-13.7-2.2-14.5-0.7-13.6-0.7-14.5v-58.3l1.4-14.4v-15.2l2.2-28.8 0.7-28.1 0.7-13.7v-39.6l-0.7-13-0.7-12.2-1.5-11.6-2.1-11.5-2.2-10.8-7.2-20.2-4.3-8.6 9.4 4.3z" />
<glyph unicode="&#xe9ad;" d="M1024 448c0-282.77-229.23-512-512-512s-512 229.23-512 512c0 282.77 229.23 512 512 512s512-229.23 512-512z" />
<glyph unicode="&#xe9ae;" d="M603.429 192h-111.543l-43.886-93.257h199.314z" />
<glyph unicode="&#xe9af;" d="M164.571 694.857h676.571v-362.057h-676.571v362.057z" />
<glyph unicode="&#xe9b0;" d="M850.286 321.829h-694.857v382.171h694.857v-382.171zM173.714 340.114h658.286v345.6h-658.286v-345.6z" />
<glyph unicode="&#xe9b1;" d="M850.286 201.143h-694.857v138.971h694.857v-138.971zM173.714 219.429h658.286v102.4h-658.286v-102.4z" />
<glyph unicode="&#xe9b2;" d="M608.914 122.514h-193.829l45.714 96.914h104.229l43.886-96.914zM444.343 140.8h137.143l-27.429 60.343h-80.457l-29.257-60.343z" />
<glyph unicode="&#xe9b3;" d="M365.714 140.8h292.571v-18.286h-292.571v18.286z" />
<glyph unicode="&#xe9b4;" d="M422.4 469.943c0-19.188-15.555-34.743-34.743-34.743s-34.743 15.555-34.743 34.743c0 19.188 15.555 34.743 34.743 34.743s34.743-15.555 34.743-34.743z" />
<glyph unicode="&#xe9b5;" d="M586.971 433.371c0-19.188-15.555-34.743-34.743-34.743s-34.743 15.555-34.743 34.743c0 19.188 15.555 34.743 34.743 34.743s34.743-15.555 34.743-34.743z" />
<glyph unicode="&#xe9b6;" d="M720.457 552.229c0-19.188-15.555-34.743-34.743-34.743s-34.743 15.555-34.743 34.743c0 19.188 15.555 34.743 34.743 34.743s34.743-15.555 34.743-34.743z" />
<glyph unicode="&#xe9b7;" d="M265.143 385.829c-1.829 0-3.657 0-5.486 1.829-3.657 3.657-3.657 9.143-1.829 12.8l65.829 76.8c3.657 3.657 9.143 3.657 12.8 1.829 3.657-3.657 3.657-9.143 1.829-12.8l-65.829-76.8c-1.829-1.829-5.486-3.657-7.314-3.657z" />
<glyph unicode="&#xe9b8;" d="M488.229 446.171c-1.829 0-3.657 0-3.657 1.829l-76.8 40.229c-3.657 1.829-5.486 7.314-3.657 12.8 1.829 3.657 7.314 5.486 12.8 3.657l76.8-40.229c3.657-1.829 5.486-7.314 3.657-12.8-3.657-3.657-5.486-5.486-9.143-5.486z" />
<glyph unicode="&#xe9b9;" d="M563.2 471.771c-1.829 0-5.486 1.829-7.314 3.657-3.657 3.657-3.657 9.143 0 12.8l69.486 62.171c3.657 3.657 9.143 3.657 12.8 0s3.657-9.143 0-12.8l-69.486-62.171c0-3.657-1.829-3.657-5.486-3.657z" />
<glyph unicode="&#xe9ba;" d="M365.714 446.171c-27.429 0-49.371 21.943-49.371 49.371s21.943 49.371 49.371 49.371 49.371-21.943 49.371-49.371-21.943-49.371-49.371-49.371zM365.714 526.629c-16.457 0-31.086-14.629-31.086-31.086s14.629-31.086 31.086-31.086 31.086 14.629 31.086 31.086-14.629 31.086-31.086 31.086z" />
<glyph unicode="&#xe9bb;" d="M526.629 413.257c-27.429 0-49.371 21.943-49.371 49.371s21.943 49.371 49.371 49.371c27.429 0 49.371-21.943 49.371-49.371s-21.943-49.371-49.371-49.371zM526.629 493.714c-16.457 0-31.086-14.629-31.086-31.086s14.629-31.086 31.086-31.086 31.086 14.629 31.086 31.086-12.8 31.086-31.086 31.086z" />
<glyph unicode="&#xe9bc;" d="M665.6 521.143c-27.429 0-49.371 21.943-49.371 49.371s21.943 49.371 49.371 49.371 49.371-21.943 49.371-49.371-21.943-49.371-49.371-49.371zM665.6 603.429c-16.457 0-31.086-14.629-31.086-31.086s14.629-31.086 31.086-31.086 31.086 14.629 31.086 31.086-12.8 31.086-31.086 31.086z" />
<glyph unicode="&#xe9bd;" horiz-adv-x="1019" d="M501.6 467.1l-2.9 10.1-2.9 10.8-1.5 11.5-2.1 11.5-0.7 12.3v13l-0.8 12.9v13l0.8 13.7v13.7l1.4 28.1 1.4 28.8 0.8 15.2 0.7 14.4v14.4l0.7 15.1v14.4l-0.7 14.4v14.4l-1.5 13.7-1.4 14.5-4.3 27.3-7.2 26-4.3 12.2-5.1 12.3-6.5 11.5-7.9 13.7-8.7 12.3-9.3 11.5-20.2 18.7-10.8 8.7-10.8 6.5-11.5 6.4-10.9 5.1-12.2 3.6-23.1 5.8-12.2 0.7-11.5 0.7-11.6-0.7-22.3-2.9-10.1-2.9-10.8-4.3-9.4-4.3-9.3-5.1-17.3-13-7.3-7.2-6.4-7.9-5.8-8.6-5-10.1-4.4-10.1-2.9-10.1-1.4-11.5-0.7-11.6v-29.5l-2.2-10.8-1.4-2.9-0.7-3.6-1.5-3.6-2.9-5.8-2.1-2.1-1.5-2.9-2.1-2.2-1.5-2.9-2.8-1.4-2.2-2.2-2.9-2.1-2.2-1.5-2.8-1.4-3.6-1.4-5.8-2.9-14.4-2.9-4.3-0.7h-8l-4.3 0.7h-13l-11.5-0.7-10.8-2.2-10.8-2.9-10.1-3.6-9.4-5-8.6-5.8-7.9-7.2-7.2-7.2-7.3-7.9-5.7-8.7-5.1-9.3-8.6-20.2-2.9-10.8-2.2-10.8-1.4-23.1v-11.5l1.4-12.3 2.2-11.5 3.6-12.3 3.6-11.5 5.1-11.5 6.4-11.5 6.5-10.9 8.7-10.8 8.6-10.1 10.1-10 11.5-9.4 12.3-8.7 13-8.6 11.5-5.8 12.2-5 12.3-4.3 13-4.4 12.9-2.8 27.4-4.4 13.7-1.4 14.4-1.4 14.4-0.8h43.3l100.9 5.1h13.7l12.9 0.7h26.7l12.2-1.4 12.3-0.8 11.5-1.4 11.6-2.2 10.8-2.1 10-2.9 10.1-3.6 8.7-4.3-4.3 8.6z" />
<glyph unicode="&#xe9be;" horiz-adv-x="1019" d="M1017.5 277.6l-2.1 11.5-2.9 12.3-4.3 11.5-5.1 11.5-5.8 11.5-7.2 10.9-7.9 10.8-9.4 10.1-10 10-10.9 9.4-12.2 8.7-13.7 7.9-11.5 6.5-12.3 5-12.2 4.3-13 4.4-13 2.8-27.4 4.4-13.6 1.4-14.5 1.4-14.4 0.8h-43.2l-100.2-5.1h-13.7l-13.7-0.7h-12.9l-26 1.4-12.2 0.8-11.6 1.4-11.5 2.2-10.8 2.1-10.1 2.9-9.3 3.6-9.4 5.1 4.3-9.4 7.2-20.2 2.2-10.8 2.1-11.5 1.5-11.6 0.7-12.2 0.7-13v-39.6l-0.7-13.7-0.7-28.1-2.2-28.8v-14.4l-1.4-15.2v-58.3l0.7-14.5 0.7-13.7 2.2-14.4 1.4-13.7 2.2-12.9 3.6-13.7 3.6-13 4.3-12.2 5.1-12.3 6.4-11.5 8-13.7 8.6-12.3 9.4-11.5 10.1-10.1 10.1-8.6 10.8-8 10.8-7.2 11.5-6.4 11.5-5.1 11.6-3.6 11.5-2.9 12.3-2.9 23-1.4 11.5 0.7 11.6 1.5 21.6 4.3 20.2 8.6 8.6 5.1 9.4 6.5 7.9 6.4 7.2 7.3 6.5 8.6 6.5 7.9 4.3 10.1 4.3 9.4 2.9 10.8 2.2 11.5 0.7 11.6-0.7 12.2v17.3l2.1 10.8 1.5 2.9 0.7 3.6 1.4 2.9 1.5 3.6 1.4 2.9 2.2 2.1 1.4 2.9 2.2 2.2 2.2 2.8 2.1 2.2 2.2 1.5 2.9 2.1 11.5 5.8 3.6 1.4 2.9 0.7 7.2 1.5 4.3 0.7 3.6 0.7h8.7l4.3-0.7h12.2l11.6 0.7 11.5 2.2 10.1 2.9 10.1 3.6 9.3 5 8.7 5.8 15.8 14.4 6.5 7.9 5.8 8.7 5 9.3 5.1 10.1 3.6 10.1 2.9 10.8 2.1 10.8 1.5 11.6v23z" />
<glyph unicode="&#xe9bf;" horiz-adv-x="677" d="M243.2 329.143h193.829c5.486 0 7.314-1.829 7.314-7.314v-98.743c0-43.886-93.257-78.629-201.143-78.629s-223.086 34.743-223.086 78.629v98.743c0 5.486 1.829 7.314 7.314 7.314 0 0 215.771 0 215.771 0z" />
<glyph unicode="&#xe9c0;" horiz-adv-x="677" d="M243.2 129.829c-95.086 0-235.886 27.429-235.886 93.257v98.743c0 9.143 9.143 21.943 21.943 21.943h407.771c9.143 0 21.943-9.143 21.943-21.943v-98.743c-3.657-60.343-113.371-93.257-215.771-93.257zM32.914 314.514v-93.257c0-27.429 98.743-65.829 208.457-65.829 106.057 0 186.514 34.743 186.514 65.829v93.257h-394.971z" />
<glyph unicode="&#xe9c1;" horiz-adv-x="677" d="M243.2 433.371h193.829c5.486 0 7.314-1.829 7.314-7.314v-98.743c0-43.886-93.257-78.629-201.143-78.629s-223.086 34.743-223.086 78.629v98.743c0 5.486 1.829 7.314 7.314 7.314h215.771z" />
<glyph unicode="&#xe9c2;" horiz-adv-x="677" d="M243.2 237.714c-95.086 0-235.886 27.429-235.886 93.257v98.743c0 10.971 9.143 21.943 21.943 21.943h407.771c9.143 0 21.943-9.143 21.943-21.943v-98.743c-3.657-62.171-113.371-93.257-215.771-93.257zM32.914 422.4v-93.257c0-27.429 98.743-65.829 208.457-65.829 106.057 0 186.514 34.743 186.514 65.829v93.257c1.829 0-394.971 0-394.971 0z" />
<glyph unicode="&#xe9c3;" horiz-adv-x="677" d="M243.2 541.257h193.829c5.486 0 7.314-1.829 7.314-7.314v-98.743c0-43.886-93.257-78.629-201.143-78.629s-223.086 32.914-223.086 76.8v98.743c0 5.486 1.829 7.314 7.314 7.314 0 1.829 215.771 1.829 215.771 1.829z" />
<glyph unicode="&#xe9c4;" horiz-adv-x="677" d="M243.2 341.943c-95.086 0-235.886 27.429-235.886 93.257v98.743c0 9.143 9.143 21.943 21.943 21.943h407.771c9.143 0 21.943-10.971 21.943-21.943v-98.743c-3.657-62.171-113.371-93.257-215.771-93.257zM32.914 526.629v-93.257c0-27.429 98.743-65.829 208.457-65.829 106.057 0 186.514 34.743 186.514 65.829v93.257h-394.971z" />
<glyph unicode="&#xe9c5;" horiz-adv-x="677" d="M243.2 647.314h193.829c5.486 0 7.314-1.829 7.314-7.314v-98.743c0-43.886-93.257-78.629-201.143-78.629s-223.086 32.914-223.086 78.629v98.743c0 5.486 1.829 7.314 7.314 7.314h215.771z" />
<glyph unicode="&#xe9c6;" horiz-adv-x="677" d="M243.2 448c-95.086 0-235.886 27.429-235.886 93.257v98.743c0 9.143 9.143 21.943 21.943 21.943h407.771c9.143 0 21.943-9.143 21.943-21.943v-98.743c-3.657-60.343-113.371-93.257-215.771-93.257zM32.914 632.686v-93.257c0-27.429 98.743-65.829 208.457-65.829 106.057 0 186.514 34.743 186.514 65.829v93.257h-394.971z" />
<glyph unicode="&#xe9c7;" horiz-adv-x="677" d="M243.2 751.543h193.829c5.486 0 7.314-1.829 7.314-7.314v-98.743c0-43.886-93.257-78.629-201.143-78.629s-223.086 34.743-223.086 78.629v98.743c0 5.486 1.829 7.314 7.314 7.314h215.771z" />
<glyph unicode="&#xe9c8;" horiz-adv-x="677" d="M243.2 554.057c-95.086 0-235.886 27.429-235.886 93.257v98.743c0 10.971 9.143 21.943 21.943 21.943h407.771c9.143 0 21.943-10.971 21.943-21.943v-98.743c-3.657-62.171-113.371-93.257-215.771-93.257zM32.914 738.743v-93.257c0-27.429 98.743-65.829 208.457-65.829 106.057 0 186.514 34.743 186.514 65.829v93.257h-394.971z" />
<glyph unicode="&#xe9c9;" horiz-adv-x="677" d="M243.2 857.6h193.829c5.486 0 7.314-1.829 7.314-7.314v-98.743c0-43.886-93.257-78.629-201.143-78.629s-223.086 34.743-223.086 78.629v98.743c0 5.486 1.829 7.314 7.314 7.314h215.771z" />
<glyph unicode="&#xe9ca;" d="M1024 448c0-282.77-229.23-512-512-512s-512 229.23-512 512c0 282.77 229.23 512 512 512s512-229.23 512-512z" />
<glyph unicode="&#xe9cb;" d="M148.114 550.4h676.571v-362.057h-676.571v362.057z" />
<glyph unicode="&#xe9cc;" d="M833.829 177.371h-694.857v380.343h694.857v-380.343zM157.257 195.657h658.286v343.771h-658.286v-343.771z" />
<glyph unicode="&#xe9cd;" d="M665.6 455.314h-248.686c-5.486 0-9.143 3.657-9.143 9.143s3.657 9.143 9.143 9.143h248.686c5.486 0 9.143-3.657 9.143-9.143s-3.657-9.143-9.143-9.143z" />
<glyph unicode="&#xe9ce;" d="M616.229 396.8h-201.143c-5.486 0-9.143 3.657-9.143 9.143s3.657 9.143 9.143 9.143h201.143c5.486 0 9.143-3.657 9.143-9.143s-3.657-9.143-9.143-9.143z" />
<glyph unicode="&#xe9cf;" d="M204.8 495.543h138.971v-138.971h-138.971v138.971z" />
<glyph unicode="&#xe9d0;" d="M352.914 347.429h-157.257v157.257h157.257v-157.257zM213.943 365.714h120.686v120.686h-120.686v-120.686z" />
<glyph unicode="&#xe9d1;" d="M204.8 276.114h138.971v-87.771h-138.971v87.771z" />
<glyph unicode="&#xe9d2;" d="M352.914 177.371h-157.257v106.057h157.257v-106.057zM213.943 195.657h120.686v69.486h-120.686v-69.486z" />
<glyph unicode="&#xe9d3;" d="M665.6 237.714h-248.686c-5.486 0-9.143 3.657-9.143 9.143s3.657 9.143 9.143 9.143h248.686c5.486 0 9.143-3.657 9.143-9.143s-3.657-9.143-9.143-9.143z" />
<glyph unicode="&#xe9d4;" d="M616.229 177.371h-201.143c-5.486 0-9.143 3.657-9.143 9.143s3.657 9.143 9.143 9.143h201.143c5.486 0 9.143-3.657 9.143-9.143s-3.657-9.143-9.143-9.143z" />
<glyph unicode="&#xe9d5;" d="M199.314 709.486h676.571v-120.686h-676.571v120.686z" />
<glyph unicode="&#xe9d6;" d="M833.829 539.429h-694.857v138.971h694.857v-138.971zM157.257 557.714h658.286v102.4h-658.286v-102.4z" />
<glyph unicode="&#xe9d7;" d="M576 568.686c-20.114 0-36.571 16.457-36.571 38.4s16.457 36.571 36.571 36.571c20.114 0 38.4-16.457 38.4-36.571s-18.286-38.4-38.4-38.4zM576 625.371c-10.971 0-18.286-9.143-18.286-18.286s9.143-20.114 18.286-20.114 20.114 9.143 20.114 20.114-9.143 18.286-20.114 18.286z" />
<glyph unicode="&#xe9d8;" d="M667.429 568.686c-20.114 0-36.571 16.457-36.571 38.4s16.457 36.571 36.571 36.571c20.114 0 38.4-16.457 38.4-36.571s-18.286-38.4-38.4-38.4zM667.429 625.371c-10.971 0-18.286-9.143-18.286-18.286s9.143-20.114 18.286-20.114 20.114 9.143 20.114 20.114-9.143 18.286-20.114 18.286z" />
<glyph unicode="&#xe9d9;" d="M758.857 568.686c-20.114 0-36.571 16.457-36.571 38.4s16.457 36.571 36.571 36.571c20.114 0 38.4-16.457 38.4-36.571s-18.286-38.4-38.4-38.4zM758.857 625.371c-10.971 0-18.286-9.143-18.286-18.286s9.143-20.114 18.286-20.114 20.114 9.143 20.114 20.114-9.143 18.286-20.114 18.286z" />
<glyph unicode="&#xe9da;" horiz-adv-x="677" d="M243.2 658.286c-95.086 0-235.886 27.429-235.886 93.257v98.743c0 10.971 9.143 21.943 21.943 21.943h407.771c9.143 0 21.943-10.971 21.943-21.943v-98.743c-3.657-60.343-113.371-93.257-215.771-93.257zM32.914 844.8v-93.257c0-27.429 98.743-65.829 208.457-65.829 106.057 0 186.514 34.743 186.514 65.829v93.257h-394.971z" />
<glyph unicode="&#xe9db;" horiz-adv-x="677" d="M442.514 857.6c0-43.425-94.967-78.629-212.114-78.629s-212.114 35.203-212.114 78.629c0 43.425 94.967 78.629 212.114 78.629s212.114-35.203 212.114-78.629z" />
<glyph unicode="&#xe9dc;" horiz-adv-x="677" d="M230.4 766.171c-107.886 0-224.914 32.914-224.914 93.257s117.029 93.257 224.914 93.257 224.914-32.914 224.914-93.257-115.2-93.257-224.914-93.257zM230.4 925.257c-115.2 0-199.314-34.743-199.314-67.657s84.114-65.829 199.314-65.829 199.314 34.743 199.314 65.829-84.114 67.657-199.314 67.657z" />
<glyph unicode="&#xe9dd;" horiz-adv-x="677" d="M453.486 144.457h193.829c5.486 0 7.314-1.829 7.314-7.314v-98.743c0-43.886-93.257-78.629-201.143-78.629s-223.086 34.743-223.086 78.629v98.743c0 5.486 1.829 7.314 7.314 7.314h215.771z" />
<glyph unicode="&#xe9de;" horiz-adv-x="677" d="M453.486-54.857c-93.257 0-234.057 27.429-234.057 93.257v98.743c0 9.143 10.971 21.943 21.943 21.943h407.771c9.143 0 21.943-10.971 21.943-21.943v-98.743c-3.657-60.343-115.2-93.257-217.6-93.257zM245.029 129.829v-93.257c0-27.429 98.743-65.829 208.457-65.829 106.057 0 186.514 34.743 186.514 65.829v93.257h-394.971z" />
<glyph unicode="&#xe9df;" horiz-adv-x="677" d="M453.486 248.686h193.829c5.486 0 7.314-1.829 7.314-7.314v-98.743c0-43.886-93.257-78.629-201.143-78.629s-223.086 34.743-223.086 78.629v98.743c0 5.486 1.829 7.314 7.314 7.314h215.771z" />
<glyph unicode="&#xe9e0;" horiz-adv-x="677" d="M453.486 51.2c-95.086 0-235.886 27.429-235.886 93.257v98.743c0 9.143 10.971 21.943 21.943 21.943h407.771c9.143 0 21.943-9.143 21.943-21.943v-98.743c-1.829-62.171-113.371-93.257-215.771-93.257zM245.029 237.714v-93.257c0-27.429 98.743-65.829 208.457-65.829 106.057 0 186.514 34.743 186.514 65.829v93.257h-394.971z" />
<glyph unicode="&#xe9e1;" horiz-adv-x="677" d="M453.486 354.743h193.829c5.486 0 7.314-1.829 7.314-7.314v-98.743c0-43.886-93.257-78.629-201.143-78.629s-223.086 34.743-223.086 78.629v98.743c0 5.486 1.829 7.314 7.314 7.314 1.829 0 215.771 0 215.771 0z" />
<glyph unicode="&#xe9e2;" horiz-adv-x="677" d="M453.486 155.429c-93.257 0-234.057 29.257-234.057 93.257v98.743c0 10.971 10.971 21.943 21.943 21.943h407.771c9.143 0 21.943-9.143 21.943-21.943v-98.743c-3.657-60.343-115.2-93.257-217.6-93.257zM245.029 341.943v-93.257c0-27.429 98.743-65.829 208.457-65.829 106.057 0 186.514 34.743 186.514 65.829v93.257c1.829 0-394.971 0-394.971 0z" />
<glyph unicode="&#xe9e3;" horiz-adv-x="677" d="M453.486 462.629h193.829c5.486 0 7.314-1.829 7.314-7.314v-98.743c0-43.886-93.257-78.629-201.143-78.629s-223.086 34.743-223.086 78.629v98.743c0 5.486 1.829 7.314 7.314 7.314 1.829 0 215.771 0 215.771 0z" />
<glyph unicode="&#xe9e4;" horiz-adv-x="677" d="M453.486 263.314c-95.086 0-235.886 27.429-235.886 93.257v98.743c0 9.143 10.971 21.943 21.943 21.943h407.771c9.143 0 21.943-9.143 21.943-21.943v-98.743c-1.829-62.171-113.371-93.257-215.771-93.257zM245.029 448v-93.257c0-27.429 98.743-65.829 208.457-65.829 106.057 0 186.514 34.743 186.514 65.829v93.257c1.829 0-394.971 0-394.971 0z" />
<glyph unicode="&#xe9e5;" horiz-adv-x="677" d="M453.486 566.857h193.829c5.486 0 7.314-1.829 7.314-7.314v-98.743c0-43.886-93.257-78.629-201.143-78.629s-223.086 34.743-223.086 78.629v96.914c0 5.486 1.829 7.314 7.314 7.314h215.771z" />
<glyph unicode="&#xe9e6;" horiz-adv-x="677" d="M453.486 369.371c-95.086 0-235.886 27.429-235.886 93.257v98.743c0 10.971 10.971 21.943 21.943 21.943h407.771c9.143 0 21.943-9.143 21.943-21.943v-98.743c-1.829-62.171-113.371-93.257-215.771-93.257zM245.029 554.057v-93.257c0-27.429 98.743-65.829 208.457-65.829 106.057 0 186.514 34.743 186.514 65.829v93.257h-394.971z" />
<glyph unicode="&#xe9e7;" horiz-adv-x="677" d="M453.486 672.914h193.829c5.486 0 7.314-1.829 7.314-7.314v-98.743c0-43.886-93.257-78.629-201.143-78.629s-223.086 34.743-223.086 78.629v98.743c0 5.486 1.829 7.314 7.314 7.314 1.829 0 215.771 0 215.771 0z" />
<glyph unicode="&#xe9e8;" horiz-adv-x="677" d="M453.486 473.6c-93.257 0-234.057 29.257-234.057 93.257v98.743c0 10.971 10.971 21.943 21.943 21.943h407.771c9.143 0 21.943-9.143 21.943-21.943v-98.743c-3.657-60.343-115.2-93.257-217.6-93.257zM245.029 658.286v-93.257c0-27.429 98.743-65.829 208.457-65.829 106.057 0 186.514 34.743 186.514 65.829v93.257h-394.971z" />
<glyph unicode="&#xe9e9;" horiz-adv-x="677" d="M656.457 672.914c0-43.425-94.967-78.629-212.114-78.629s-212.114 35.203-212.114 78.629c0 43.425 94.967 78.629 212.114 78.629s212.114-35.203 212.114-78.629z" />
<glyph unicode="&#xe9ea;" horiz-adv-x="677" d="M444.343 581.486c-109.714 0-224.914 31.086-224.914 91.429s117.029 93.257 224.914 93.257 224.914-32.914 224.914-93.257-117.029-91.429-224.914-91.429zM444.343 738.743c-115.2 0-199.314-34.743-199.314-65.829s84.114-65.829 199.314-65.829 199.314 34.743 199.314 65.829c-1.829 32.914-87.771 65.829-199.314 65.829z" />
<glyph unicode="&#xe9eb;" d="M107.886 769.829h166.4v-356.571h-166.4v356.571z" />
<glyph unicode="&#xe9ec;" d="M345.6 579.657h166.4v-166.4h-166.4v166.4z" />
<glyph unicode="&#xe9ed;" d="M583.314 864.914h166.4v-449.829h-166.4v449.829z" />
<glyph unicode="&#xe9ee;" d="M821.029 674.743h166.4v-261.486h-166.4v261.486z" />
<glyph unicode="&#xe9ef;" d="M14.629 453.486h996.571v-473.6h-996.571v473.6z" />
<glyph unicode="&#xe9f0;" d="M250.514 442.514h-188.343v378.514h190.171l-1.829-378.514zM85.943 466.286h142.629v330.971h-142.629v-330.971z" />
<glyph unicode="&#xe9f1;" d="M488.229 442.514h-190.171v190.171h190.171c-1.829 0-1.829-190.171 0-190.171zM321.829 466.286h142.629v142.629h-142.629c0 0 0-142.629 0-142.629z" />
<glyph unicode="&#xe9f2;" d="M725.943 442.514h-190.171v473.6h190.171c-1.829 0-1.829-473.6 0-473.6zM559.543 466.286h142.629v426.057h-142.629c0 0 0-426.057 0-426.057z" />
<glyph unicode="&#xe9f3;" d="M960 442.514h-186.514v283.429h190.171l-3.657-283.429zM795.429 466.286h142.629v237.714h-142.629v-237.714z" />
<glyph unicode="&#xe9f4;" d="M960 204.8h-186.514v261.486h190.171l-3.657-261.486zM795.429 228.571h142.629v213.943h-142.629v-213.943z" />
<glyph unicode="&#xe9f5;" d="M773.873 367.069l145.208 95.334 13.046-19.871-145.208-95.334-13.046 19.871z" />
<glyph unicode="&#xe9f6;" d="M775.075 270.749l168.96 118.956 13.685-19.438-168.96-118.956-13.685 19.438z" />
<glyph unicode="&#xe9f7;" d="M843.581 223.975l99.678 71.23 13.821-19.34-99.678-71.23-13.821 19.34z" />
<glyph unicode="&#xe9f8;" d="M725.943 14.629h-190.171v451.657h190.171c-1.829 0-1.829-451.657 0-451.657zM559.543 38.4h142.629v404.114h-142.629c0 0 0-404.114 0-404.114z" />
<glyph unicode="&#xe9f9;" d="M616.229 427.886h-151.771c-5.486 0-9.143 3.657-9.143 9.143s3.657 9.143 9.143 9.143h151.771c5.486 0 9.143-3.657 9.143-9.143s-3.657-9.143-9.143-9.143z" />
<glyph unicode="&#xe9fa;" d="M451.657 318.171h-188.343c-5.486 0-9.143 3.657-9.143 9.143s3.657 9.143 9.143 9.143h188.343c5.486 0 9.143-3.657 9.143-9.143s-3.657-9.143-9.143-9.143z" />
<glyph unicode="&#xe9fb;" d="M415.086 245.029h-151.771c-5.486 0-9.143 3.657-9.143 9.143s3.657 9.143 9.143 9.143h151.771c5.486 0 9.143-3.657 9.143-9.143s-3.657-9.143-9.143-9.143z" />
<glyph unicode="&#xe9fc;" d="M821.029 186.514c0-78.772-63.857-142.629-142.629-142.629s-142.629 63.857-142.629 142.629c0 78.772 63.857 142.629 142.629 142.629s142.629-63.857 142.629-142.629z" />
<glyph unicode="&#xe9fd;" d="M645.486 71.314c-84.114 0-151.771 67.657-151.771 151.771s67.657 151.771 151.771 151.771 151.771-67.657 151.771-151.771-67.657-151.771-151.771-151.771zM645.486 356.571c-73.143 0-133.486-60.343-133.486-133.486s60.343-133.486 133.486-133.486 133.486 60.343 133.486 133.486-60.343 133.486-133.486 133.486z" />
<glyph unicode="&#xe9fe;" d="M536.031 366.978l145.208 95.334 13.046-19.871-145.208-95.334-13.046 19.871z" />
<glyph unicode="&#xe9ff;" d="M538.693 271.692l168.96 118.956 13.685-19.438-168.96-118.956-13.685 19.438z" />
<glyph unicode="&#xea00;" d="M538.736 176.541l168.96 118.956 13.685-19.438-168.96-118.956-13.685 19.438z" />
<glyph unicode="&#xea01;" d="M543.942 91.247l160.509 108.641 13.324-19.685-160.509-108.641-13.324 19.685z" />
<glyph unicode="&#xea02;" d="M608.914 14.629l-14.629 20.114 113.371 71.314 12.8-20.114z" />
<glyph unicode="&#xea03;" d="M488.229 276.114h-190.171v190.171h190.171c-1.829 0-1.829-190.171 0-190.171zM321.829 299.886h142.629v142.629h-142.629c0 0 0-142.629 0-142.629z" />
<glyph unicode="&#xea04;" d="M300.489 367.263l145.295 95.213 13.029-19.882-145.295-95.213-13.029 19.882z" />
<glyph unicode="&#xea05;" d="M329.574 295.771l136.964 94.499 13.5-19.566-136.964-94.499-13.5 19.566z" />
<glyph unicode="&#xea06;" d="M250.514 85.943h-188.343v380.343h190.171l-1.829-380.343zM85.943 109.714h142.629v332.8h-142.629v-332.8z" />
<glyph unicode="&#xea07;" d="M62.639 367.174l145.295 95.213 13.029-19.882-145.295-95.213-13.029 19.882z" />
<glyph unicode="&#xea08;" d="M62.937 271.474l168.96 118.956 13.685-19.438-168.96-118.956-13.685 19.438z" />
<glyph unicode="&#xea09;" d="M62.982 176.324l168.96 118.956 13.685-19.438-168.96-118.956-13.685 19.438z" />
<glyph unicode="&#xea0a;" d="M86.562 105.507l145.208 95.334 13.046-19.871-145.208-95.334-13.046 19.871z" />
</font>
</defs>
</svg>
